<?xml version="1.0" standalone="no"?>
<!DOCTYPE svg PUBLIC "-//W3C//DTD SVG 1.1//EN" "http://www.w3.org/Graphics/SVG/1.1/DTD/svg11.dtd" >
<!--
2013-9-30: Created.
-->
<svg>
<metadata>
Created by iconfont
</metadata>
<defs>

<font id="iconfont" horiz-adv-x="1024" >
  <font-face
    font-family="iconfont"
    font-weight="500"
    font-stretch="normal"
    units-per-em="1024"
    ascent="896"
    descent="-128"
  />
    <missing-glyph />
    
    <glyph glyph-name="x" unicode="x" horiz-adv-x="1001"
d="M281 543q-27 -1 -53 -1h-83q-18 0 -36.5 -6t-32.5 -18.5t-23 -32t-9 -45.5v-76h912v41q0 16 -0.5 30t-0.5 18q0 13 -5 29t-17 29.5t-31.5 22.5t-49.5 9h-133v-97h-438v97zM955 310v-52q0 -23 0.5 -52t0.5 -58t-10.5 -47.5t-26 -30t-33 -16t-31.5 -4.5q-14 -1 -29.5 -0.5
t-29.5 0.5h-32l-45 128h-439l-44 -128h-29h-34q-20 0 -45 1q-25 0 -41 9.5t-25.5 23t-13.5 29.5t-4 30v167h911zM163 247q-12 0 -21 -8.5t-9 -21.5t9 -21.5t21 -8.5q13 0 22 8.5t9 21.5t-9 21.5t-22 8.5zM316 123q-8 -26 -14 -48q-5 -19 -10.5 -37t-7.5 -25t-3 -15t1 -14.5
t9.5 -10.5t21.5 -4h37h67h81h80h64h36q23 0 34 12t2 38q-5 13 -9.5 30.5t-9.5 34.5q-5 19 -11 39h-368zM336 498v228q0 11 2.5 23t10 21.5t20.5 15.5t34 6h188q31 0 51.5 -14.5t20.5 -52.5v-227h-327z" />
    

    
    <glyph glyph-name="yunshangchuan" unicode="&#58881;" d="M1024 202.752q0-25.6-8.704-48.128t-24.576-40.448-36.864-30.208-45.568-16.384l1.024-1.024-17.408 0-4.096 0-4.096 0-675.84 0q-5.12-1.024-16.384-1.024-39.936 0-74.752 15.36t-60.928 41.472-40.96 60.928-14.848 74.752 14.848 74.752 40.96 60.928 60.928 41.472 74.752 15.36l1.024 0q-1.024 8.192-1.024 15.36l0 16.384q0 72.704 27.648 137.216t75.776 112.128 112.128 75.264 136.704 27.648 137.216-27.648 112.64-75.264 75.776-112.128 27.648-137.216q0-37.888-8.192-74.24t-22.528-69.12q5.12 1.024 10.752 1.536t10.752 0.512q27.648 0 52.736-10.752t43.52-29.696 29.184-44.032 10.752-53.76zM665.6 324.608q20.48 0 26.624 4.608t-8.192 22.016q-14.336 18.432-31.744 48.128t-36.352 60.416-38.4 57.344-37.888 38.912q-18.432 13.312-27.136 14.336t-25.088-12.288q-18.432-15.36-35.84-38.912t-35.328-50.176-35.84-52.224-36.352-45.056q-18.432-18.432-13.312-32.768t25.6-14.336l16.384 0q9.216 0 19.968-0.512t20.992-0.512l17.408 0q14.336-1.024 18.432-9.728t4.096-24.064q0-17.408-0.512-30.72t-0.512-25.6-0.512-25.6-0.512-30.72q0-7.168 1.536-15.36t5.632-15.36 12.288-11.776 21.504-4.608l23.552 0q9.216 0 27.648-1.024 24.576 0 28.16 12.288t3.584 38.912q0 23.552 0.512 42.496t0.512 51.712q0 23.552 4.608 36.352t19.968 12.8q11.264 0 32.256 0.512t32.256 0.512z"  horiz-adv-x="1024" />

    
    <glyph glyph-name="shangchuan" unicode="&#58882;" d="M274.432 518.144001q-27.648 0-35.328 14.848t10.752 38.4q19.456 24.576 45.056 59.392t53.248 72.192 53.76 72.704 46.592 60.928q18.432 23.552 35.328 24.576t36.352-21.504q19.456-23.552 44.544-56.832t51.712-69.632 52.736-71.168 46.592-60.416q22.528-27.648 17.408-46.08t-33.792-17.408q-17.408 0-45.056-1.024t-46.08-1.024q-20.48-1.024-25.088-12.8t-4.608-32.256l0-50.176q0-27.648 0.512-56.32t0.512-56.32l0-51.2q0-10.24-1.536-21.504t-7.168-20.48-16.384-15.36-29.184-6.144q-21.504 0-39.424-0.512t-42.496-0.512q-33.792 0-45.568 15.872t-11.776 50.688l0 39.936q0 23.552-0.512 50.176t-0.512 53.248l0 48.128q0 30.72-6.144 48.64t-27.648 16.896q-15.36 0-37.376 1.024t-39.424 1.024zM961.535999-5.119998q6.144-24.576-2.56-47.104t-27.136-39.424-45.056-26.624-57.344-9.728l-694.271999 0q-36.864 0-65.024 13.312t-45.056 32.768-22.528 42.496 1.536 41.472q6.144 14.336 12.288 29.696 5.12 13.312 12.288 30.208t15.36 34.304l38.912 94.208 116.736 0-44.032-129.024 659.455999 0-44.032 129.024 111.616 0q21.504-52.224 38.912-94.208 7.168-18.432 14.336-35.84t12.8-31.232 9.216-23.552 3.584-10.752z"  horiz-adv-x="1024" />

    
    <glyph glyph-name="lvxing" unicode="&#58883;" d="M700.065799 522.972239q116.507301-104.243374 209.508743-189.068865 39.857761-35.769785 77.671534-71.028574t67.451595-63.36362 47.522715-47.011718 17.884893-21.972868l0-61.319632q0-4.087975-17.884893 1.532991t-47.522715 17.373896-67.451595 27.593834-77.671534 33.214801q-93.001442 40.879755-209.508743 95.04543l0-193.156841q26.571841-19.417883 50.077699-37.813773 20.439877-15.329908 40.879755-30.148819t31.68181-22.994862q13.28592-9.197945 15.329908-18.906887t2.043988-22.994862l0-34.747791q0-8.175951-16.862899-10.730936t-40.368758 8.686948q-11.241933 6.131963-40.879755 18.39589t-63.36362 26.571841-64.896611 26.571841-46.500721 18.39589q-2.043988 0-3.576979 0.510997t-3.576979 0.510997-3.576979-0.510997-3.576979-0.510997q-15.329908-6.131963-46.500721-18.39589t-64.896611-26.571841-63.36362-26.571841-40.879755-18.39589q-23.505859-11.241933-40.368758-8.686948t-16.862899 10.730936l0 34.747791q0 13.28592 2.043988 22.994862t15.329908 18.906887q11.241933 8.175951 31.68181 22.994862t40.879755 30.148819q23.505859 18.39589 50.077699 37.813773l0 193.156841q-117.529295-54.165675-210.530737-95.04543-39.857761-17.373896-77.160537-33.214801t-66.940598-27.593834-47.522715-17.373896-17.884893-1.532991l0 61.319632q0 3.065982 17.884893 21.972868t47.522715 47.011718 66.940598 63.36362 77.160537 71.028574q93.001442 84.825491 210.530737 189.068865l0 231.992608q0 34.747791 10.219939 58.764647t25.549847 39.346764 33.214801 23.505859 33.725798 12.263926 26.060844 4.598972 11.241933 0.510997l10.219939 0q11.241933-1.021994 27.082837-5.109969t33.725798-12.263926 33.214801-23.505859 25.549847-39.346764 10.219939-58.764647l0-231.992608z"  horiz-adv-x="1121" />

    
    <glyph glyph-name="qiandai" unicode="&#58884;" d="M522.24 791.552q2.048 0 5.12 2.048 6.144 4.096 16.384 14.336 12.288 11.264 24.576 16.384t32.768-3.072q10.24-3.072 16.384-8.704t11.776-10.752 12.288-8.704 16.896-3.584 17.408 3.072 13.824 5.632 13.312 3.584 15.872-2.048q10.24-4.096 13.824-11.776t2.048-15.872-7.168-16.384-13.824-13.312q-19.456-12.288-29.696-25.088t-20.48-27.136q-5.12-7.168-11.264-16.384t-11.264-18.432q-6.144-11.264-13.312-21.504l-211.968 0q-7.168 12.288-14.336 23.552-6.144 10.24-13.312 20.48t-12.288 18.432q-10.24 15.36-23.04 27.136t-25.088 20.992q-13.312 9.216-18.432 25.088t9.216 27.136q7.168 5.12 16.384 4.096t19.456-4.096 19.968-6.144 17.92-1.024q14.336 3.072 21.504 10.752t24.576 18.944q13.312 8.192 29.696 5.632t24.576-10.752q4.096-5.12 8.704-8.704t9.728-6.656q5.12-4.096 11.264-7.168zM637.952 586.752q12.288-16.384 30.72-35.84 15.36-17.408 37.888-39.424t52.224-46.592q24.576-21.504 50.688-50.688t45.568-68.096 27.136-89.6-2.56-113.152q-9.216-51.2-36.352-96.768t-72.192-79.36-107.008-53.76-140.8-19.968q-80.896 0-143.36 23.04t-105.984 59.904-69.12 82.432-33.792 90.624q-9.216 50.176-2.56 96.256t24.064 86.528 43.52 74.24 56.832 60.416q26.624 23.552 48.128 44.544t35.84 38.4q17.408 19.456 30.72 36.864l230.4 0zM529.408 272.384l-27.648 27.648-21.504 21.504q-10.24 10.24-14.336 15.36-8.192 7.168-21.504 11.776t-22.528-5.632q-8.192-11.264-4.096-22.016t9.216-16.896l15.36-14.336q11.264-12.288 24.576-26.624 15.36-16.384 33.792-34.816l-1.024-21.504-69.632 0q-9.216 0-15.872-7.168t-6.656-15.36 6.144-14.336 16.384-6.144l69.632 0 0-35.84-69.632 0q-9.216 0-15.872-5.632t-6.656-14.848q-1.024-8.192 5.632-13.824t16.896-5.632l69.632 0 0-20.48q1.024-14.336 9.216-19.968t20.48-5.632q12.288-1.024 19.968 7.68t7.68 17.92l0 20.48 71.68 0q10.24 0 16.896 4.608t5.632 14.848q0 21.504-28.672 21.504l-65.536 0 1.024 34.816 66.56 1.024q14.336-1.024 20.48 5.632t6.144 15.872q0 8.192-6.656 14.848t-20.992 6.656l-66.56 0 0 19.456q17.408 16.384 31.744 31.744 12.288 12.288 24.576 25.088t18.432 17.92q23.552 20.48 10.24 35.84-7.168 9.216-18.432 9.216t-20.48-8.192q-5.12-4.096-17.408-14.848t-24.576-22.016q-14.336-13.312-31.744-29.696z"  horiz-adv-x="1024" />

    
    <glyph glyph-name="liwu" unicode="&#58885;" d="M474.18097 768.709107l-134.35708 0q-13.933327 0-21.397609 6.469045t-10.449995 16.421421-2.985713 22.392847 1.990475 23.388084q0.995238 10.947614 3.980951 23.885703t8.45952 21.895228 14.430946 11.942852 21.895228-4.976188q14.928564-8.957139 33.83808-19.407134t36.823792-20.89999 33.340461-18.909515 23.388084-13.435708q9.952376-6.966663 14.928564-15.426183t3.980951-15.923802-7.961901-12.44047-19.904753-4.976188zM551.809505 769.704344l133.361843 0q13.933327 0 21.397609 6.469045t10.449995 16.421421 2.985713 22.392847-0.995238 23.388084q-1.990475 10.947614-4.478569 23.388084t-7.961901 21.397609-14.430946 11.942852-21.895228-3.980951q-14.928564-8.957139-33.83808-19.407134t-37.321411-20.89999-33.83808-18.909515-22.392847-13.435708q-10.947614-6.966663-15.923802-15.426183t-3.980951-15.923802 7.961901-12.44047 20.89999-4.976188zM460.247643 704.018661l-288.618913 0q-31.847604 0-41.302362-10.449995t-9.454758-33.340461l0-87.580912q0-24.880941 10.449995-36.823792t41.302362-11.942852l287.623676 0 0 180.138011zM568.728545 704.018661l284.637963 0q31.847604 0 43.292837-12.44047t11.445233-35.330936l0-85.590436q0-23.885703-10.449995-35.330936t-41.302362-11.445233l-287.623676 0 0 180.138011zM460.247643 471.133055l-305.537953 0 0-163.218972 0-64.690446 0-60.709496 0-51.752357 0-35.828555q0-50.757119 28.861891-78.623773t89.571387-27.866654l187.104675 0 0 482.690252zM568.728545 471.133055l304.542716 0 0-373.214112q-0.995238-50.757119-28.861891-80.116629t-88.576149-29.35951l-187.104675 0 0 482.690252z"  horiz-adv-x="1024" />

    
    <glyph glyph-name="suoding" unicode="&#58886;" d="M385.150849 510.337662l-128.895105 0 0 150.377622q0 49.102897 19.436563 91.556444t53.706294 74.677323 80.815185 50.637363 101.786214 18.413586q49.102897 0 94.625375-18.413586t80.815185-50.637363 56.263736-74.677323 20.971029-91.556444l0-150.377622-123.78022 0 0 121.734266q0 64.447552-35.804196 99.74026t-97.182817 35.292707q-55.240759 0-88.999001-35.292707t-33.758242-99.74026l0-121.734266zM826.053946 448.959041q27.62038 0 47.568432-19.948052t19.948052-47.568432l0-317.122877q0-27.62038-9.718282-51.66034t-26.597403-41.942058-39.896104-28.131868-50.637363-10.22977l-516.603397 0q-27.62038 0-50.125874 10.22977t-38.361638 27.108891-24.551449 39.384615-8.695305 48.07992l0 324.283716q0 27.62038 19.436563 47.568432t47.056943 19.948052l61.378621 0 128.895105 0 255.744256 0 123.78022 0 61.378621 0z"  horiz-adv-x="1024" />

    
    <glyph glyph-name="designer" unicode="&#58880;" d="M357.376 248.832q0-19.456-16.896-31.744t-42.496-23.552-55.296-25.6-54.272-38.912l-19.456 0q-41.984 0-73.216 8.704t-52.736 23.04-32.256 32.256-10.752 36.352q0 21.504 22.528 34.816t49.664 24.576 49.664 23.552 22.528 31.744-12.288 35.84-27.136 37.376-27.136 49.152-12.288 72.192q0 31.744 6.656 61.44t19.968 52.224 33.792 35.84 48.128 13.312q36.864 0 61.44-12.288-6.144-36.864-6.144-76.8 0-64.512 10.752-109.568t27.136-77.824q-15.36-20.48-28.672-38.4t-13.312-42.496q0-13.312 14.336-23.04t34.304-18.432 42.496-17.92 39.936-19.456q1.024-5.12 1.024-16.384zM865.28 344.06399999999996q0-11.264 11.776-20.48t29.184-17.408 38.4-15.872 38.4-16.384 29.184-19.456 11.776-25.088q0-22.528-15.36-39.936t-40.96-29.184-58.88-17.92-68.096-7.168q-28.672 19.456-61.44 30.208t-61.952 19.456-50.176 19.456-25.088 31.232q4.096 19.456 26.624 31.744t48.64 23.04 47.104 23.04 20.992 30.72q0 21.504-16.384 39.424t-33.792 41.472q16.384 35.84 27.136 84.992t10.752 115.712q0 14.336-1.536 28.672t-3.584 28.672q26.624 18.432 48.128 18.432 48.128 0 76.8-15.872t43.52-39.424 19.456-50.688 4.608-49.664q0-46.08-14.848-74.24t-32.768-48.64-32.768-37.888-14.848-40.96zM577.536 235.51999999999998q0-21.504 18.944-37.888t47.616-31.232 62.464-28.16 62.464-29.184 47.616-34.816 18.944-44.544q0-17.408-28.672-33.28t-75.776-29.184-108.544-20.992-125.952-7.68q-73.728 0-130.56 7.68t-95.232 20.48-58.368 29.184-19.968 32.768q0 25.6 18.944 44.544t47.616 34.304 61.952 28.16 61.952 27.136 47.616 31.232 18.944 40.448-9.728 44.032-24.576 41.472-32.256 45.568-32.256 55.296-24.576 70.656-9.728 92.16q0 113.664 42.496 180.736t131.584 67.072q74.752 0 117.76-22.528t65.024-57.856 27.648-77.824 5.632-83.456q0-55.296-9.728-95.232t-24.064-69.632-30.72-52.736-30.72-44.032-24.064-43.008-9.728-49.664z"  horiz-adv-x="1024" />

    
    <glyph glyph-name="jinbi" unicode="&#58887;" d="M806.912 228.352q17.408 0 29.184-7.168t18.944-18.432 10.24-25.6 3.072-28.672l0-71.68q0-26.624-17.92-46.592t-50.688-19.968l-700.416 0q-22.528 0-41.472 16.384t-18.944 44.032l0 84.992q0 31.744 19.968 52.224t48.64 20.48l699.392 0zM799.744 481.28q18.432 0 31.232-6.656t21.504-16.896 12.288-23.552 3.584-25.6l0-57.344q0-29.696-15.872-49.664t-54.784-19.968l-693.248 0q-27.648 0-46.592 19.968t-18.944 44.544l0 71.68q0 26.624 17.92 45.056t44.544 18.432l698.368 0zM910.336 753.664q28.672 0 48.128-23.04t19.456-52.736l0-62.464q0-32.768-18.944-56.832t-48.64-24.064l-697.344 0q-26.624 0-46.08 18.944t-19.456 45.568l0 88.064q0 28.672 17.408 47.616t44.032 18.944l701.44 0z"  horiz-adv-x="1024" />

    
    <glyph glyph-name="jinbizhuanchu" unicode="&#58888;" d="M52.224 320.512q-24.576 0-41.472 16.384t-16.896 40.96l0 76.8q0 24.576 16.896 41.472t41.472 16.896l741.376 0q-18.432-11.264-29.696-26.624t-11.264-30.72l0-40.96 1.024-31.744q-6.144-1.024-17.408-1.024l-69.632 0q-82.944 0-91.136-61.44l-523.264 0zM179.2 578.56q-23.552 0-40.96 16.896t-17.408 41.472l0 70.656q0 23.552 17.408 41.472t40.96 17.92l780.288 0q23.552 0 40.448-17.92t16.896-41.472l0-70.656q0-24.576-16.896-41.472t-40.448-16.896l-780.288 0zM711.68 125.952q18.432 0 28.16 2.048t14.336-1.024 5.632-14.336 1.024-37.888l0-7.168q0-4.096 1.024-7.168l-709.632 0q-24.576 0-41.472 17.408t-16.896 40.96l0 76.8q0 23.552 16.896 40.96t41.472 17.408l521.216 0 0-23.552q0-45.056 25.088-74.24t58.88-29.184l20.48 0q4.096 0 6.144-0.512t7.168-0.512l20.48 0zM1079.296 291.84q7.168-6.144 10.752-14.336t4.096-17.408-2.048-16.896-8.704-11.776q-16.384-14.336-44.544-31.744t-59.392-36.352-60.928-37.376-48.128-32.768q-23.552-20.48-34.816-21.504t-11.264 28.672l0 51.2q0 20.48-8.704 28.672t-25.088 8.192l-122.88 0q-14.336 0-25.088 7.68t-10.752 26.112l0 51.2q0 31.744 9.728 38.4t35.328 6.656l19.456 0q7.168 0 17.408-0.512t25.6-0.512l44.032 0q23.552 0 32.256 15.872t8.704 35.328l0 48.128q0 20.48 8.192 26.112t25.6-8.704q18.432-13.312 48.128-31.744t62.464-37.888 62.464-38.4 48.128-34.304z"  horiz-adv-x="1101" />

    
    <glyph glyph-name="jinbitixian" unicode="&#58889;" d="M55.296 322.56q-23.552 0-40.448 17.408t-16.896 40.96l0 77.824q0 23.552 16.896 40.448t40.448 16.896l751.616 0q-15.36-4.096-29.696-10.752t-25.6-20.992q-32.768-36.864-65.536-79.36t-62.464-82.432l-568.32 0zM183.296 581.632q-23.552 0-40.448 17.408t-16.896 40.96l0 71.68q0 23.552 16.896 40.448t40.448 16.896l779.264 0q23.552 0 40.96-16.896t17.408-40.448l0-71.68q0-23.552-17.408-40.96t-40.96-17.408l-779.264 0zM700.416 132.096l0-8.192q0-6.144 0.512-19.968t0.512-40.448l-646.144 0q-23.552 0-40.448 16.896t-16.896 41.472l0 76.8q0 23.552 16.896 40.448t40.448 16.896l517.12 0q-3.072-2.048-5.632-5.632t-4.608-5.632q-10.24-14.336-12.288-33.792t4.096-37.376 19.968-30.208 34.304-12.288l48.128 0zM1005.568 246.784l15.36-25.6q6.144-10.24 6.144-16.384t-7.68-8.704-25.088-2.56l-55.296 0q-22.528 0-33.792-11.264t-11.264-29.696l0-99.328q0-17.408-15.36-34.816t-36.864-17.408l-39.936 0q-15.36 0-27.136 11.776t-11.776 41.472q0 13.312 0.512 16.896t0.512 9.216 0.512 18.944 0.512 46.08q0 25.6-8.704 36.864t-31.232 11.264l-55.296 0q-23.552 0-29.696 9.728t10.24 30.208q15.36 20.48 34.304 47.616t38.912 56.32 38.912 56.832 36.352 49.152q7.168 8.192 18.432 12.8t23.552 5.12 22.528-2.56 15.36-10.24q12.288-21.504 28.16-47.616t33.28-52.736 34.304-52.736 31.232-48.64z"  horiz-adv-x="1030" />

    
    <glyph glyph-name="jifei" unicode="&#58890;" d="M58.368 319.488q-24.576 0-41.472 16.896t-16.896 42.496l0 76.8q0 23.552 16.896 40.96t41.472 17.408l750.592 0q8.192 0 16.384-3.072-40.96-5.12-78.336-20.992t-68.096-40.96-53.76-58.368-36.352-71.168l-530.432 0zM573.44 253.952q-1.024-8.192-1.024-15.36l0-14.336q0-46.08 13.312-87.04t36.864-75.776l-564.224 0q-24.576 0-41.472 16.896t-16.896 41.472l0 76.8q0 23.552 16.896 40.448t41.472 16.896l515.072 0zM185.344 578.56q-23.552 0-40.448 16.896t-16.896 41.472l0 70.656q0 24.576 16.896 41.984t40.448 17.408l779.264 0q23.552 0 40.448-17.408t16.896-41.984l0-70.656q0-24.576-16.896-41.472t-40.448-16.896l-779.264 0zM865.28 447.488q46.08 0 87.04-17.92t71.68-48.128 48.64-71.168 17.92-87.04q0-47.104-17.92-88.064t-48.64-71.68-71.68-48.128-87.04-17.408-87.04 17.408-71.68 48.128-48.64 71.68-17.92 88.064q0 46.08 17.92 87.04t48.64 71.168 71.68 48.128 87.04 17.92zM992.256 186.368q10.24 0 16.896 10.752t6.656 25.088-6.656 24.064-16.896 9.728l-96.256 0 0 90.112q0 8.192-8.704 14.336t-24.064 6.144q-16.384 0-24.064-6.144t-7.68-14.336l0-112.64q0-3.072-0.512-5.632t-0.512-5.632q0-14.336 6.656-25.088t16.896-10.752l138.24 0z"  horiz-adv-x="1091" />

    
    <glyph glyph-name="paixu" unicode="&#58891;" d="M564.224 851.968q43.008 0 58.368-20.48t15.36-65.536q0-20.48 0.512-64.512t0.512-93.696 0.512-96.768 0.512-74.752q0-38.912 7.68-61.952t35.328-22.016q19.456 0 48.128-1.024t49.152-1.024q35.84 0 45.568-18.944t-13.824-49.664q-24.576-30.72-57.344-72.704t-68.096-86.016-69.12-86.528-59.392-75.264q-23.552-29.696-45.568-30.72t-45.568 27.648q-24.576 29.696-57.344 69.632t-67.072 82.432-67.584 83.968-59.904 74.24q-29.696 35.84-22.528 58.88t44.032 23.04l24.576 0q14.336 0 29.696 0.512t30.208 1.536 26.112 1.024q26.624 0 32.768 15.36t6.144 41.984q0 29.696-0.512 77.824t-0.512 100.352-0.512 101.376-0.512 79.872q0 13.312 2.048 27.648t9.728 26.112 20.992 19.456 36.864 7.68q27.648 0 53.248 0.512t57.344 0.512z"  horiz-adv-x="1024" />

    
    <glyph glyph-name="xiangzuo" unicode="&#58892;" d="M966.656 328.704q0-43.008-20.48-58.368t-65.536-15.36l-64.512 0q-44.032 0-93.696-0.512t-96.768-0.512l-74.752 0q-38.912 0-61.952-7.68t-22.016-35.328q0-20.48-1.024-48.64t-1.024-49.664q0-35.84-19.456-45.568t-50.176 13.824q-30.72 24.576-72.704 57.856t-85.504 68.096-86.016 68.608-75.264 59.392q-30.72 24.576-31.232 46.592t28.16 45.568q28.672 24.576 68.608 56.832t82.944 66.56 84.48 68.096 74.24 60.416q35.84 28.672 58.88 22.016t23.04-43.52l0-25.6q0-14.336 0.512-29.696t1.024-30.208 0.512-26.112q1.024-25.6 16.384-32.256t41.984-6.656q29.696 0 77.824 0.512t100.352 0.512 101.376 0.512 79.872 0.512q13.312 0 27.648-2.048t26.112-9.728 19.456-21.504 7.68-36.352q0-27.648 0.512-53.248t0.512-57.344z"  horiz-adv-x="1024" />

    
    <glyph glyph-name="xiangshang" unicode="&#58893;" d="M470.016-80.896q-44.032 0-59.392 20.48t-15.36 65.536q0 20.48-0.512 64.512t-1.024 93.696-1.536 96.768-1.024 74.752q0 39.936-7.68 62.464t-35.328 21.504q-20.48 0-48.64 1.024t-49.664 0q-35.84 0-45.568 19.456t13.824 50.176q24.576 30.72 57.344 72.704t67.584 86.016 68.096 87.04 58.88 75.776q23.552 29.696 45.568 30.72t46.592-26.624q24.576-29.696 56.832-69.632t67.072-82.432 68.608-83.968 60.416-73.216q29.696-35.84 23.04-58.88t-43.52-23.04q-11.264 0-25.088-0.512t-29.184-1.024-30.208-1.024-27.136-0.512q-25.6-1.024-32.256-16.384t-5.632-41.984q0-29.696 0.512-77.824t1.024-100.352 1.536-101.376 1.024-79.872q0-13.312-2.048-27.648t-9.728-26.112-21.504-19.968-36.352-8.192q-27.648 0-52.736-0.512t-56.832-1.536z"  horiz-adv-x="1024" />

    
    <glyph glyph-name="xiangyou" unicode="&#58894;" d="M47.104 442.368q0 43.008 20.992 57.856t66.048 14.848q20.48 0 64.512-0.512t93.696-0.512 96.768-0.512 74.752-0.512q38.912-1.024 61.44 6.656t22.528 35.328q0 20.48 1.536 48.64t1.536 48.64q1.024 35.84 20.48 45.568t49.152-14.848q30.72-24.576 71.68-58.368t84.992-69.12 86.016-69.632 74.752-59.904q29.696-24.576 30.208-46.592t-28.16-45.568q-29.696-24.576-70.144-56.32t-83.968-65.536-85.504-67.072-74.752-58.88q-35.84-28.672-58.88-21.504t-22.016 44.032l0 24.576 0 29.696q0 15.36-0.512 30.208t-0.512 27.136q0 25.6-15.36 32.256t-41.984 6.656q-29.696 0-77.824 0.512t-100.352 0.512-101.376 0.512-79.872 0.512q-13.312 0-27.648 2.56t-26.112 9.728-18.944 20.992-7.168 37.376q0 27.648-0.512 53.248t0.512 57.344z"  horiz-adv-x="1024" />

    
    <glyph glyph-name="facebook" unicode="&#58895;" d="M832.512 832.512q26.624 0 50.176-10.24t40.96-27.648 27.648-40.448 10.24-49.664l0-641.024q0-26.624-10.24-49.664t-27.648-40.448-40.96-27.648-50.176-10.24l-191.488 0 0 384 63.488 0q26.624 0 45.568 18.944t18.944 45.568-18.944 45.568-45.568 18.944l-63.488 0q2.048 38.912 16.384 52.224t38.912 13.312l66.56 0q27.648 0 41.984 19.968t14.336 44.032-13.824 44.032-42.496 19.968l-110.592 0q-34.816 0-60.928-11.776t-44.032-32.256-26.624-47.104-8.704-57.344l0-45.056-63.488 0q-26.624 0-45.568-18.944t-18.944-45.568 18.944-45.568 45.568-18.944l63.488 0 0-384-320.512 0q-26.624 0-49.664 10.24t-40.448 27.648-27.648 40.448-10.24 49.664l0 641.024q0 26.624 10.24 49.664t27.648 40.448 40.448 27.648 49.664 10.24l641.024 0z"  horiz-adv-x="1024" />

    
    <glyph glyph-name="shouye" unicode="&#58896;" d="M1001.423238 401.408q21.504-20.48 22.528-45.056t-16.384-40.96q-19.456-17.408-45.056-16.384t-40.96 14.336q-5.12 4.096-31.232 28.672t-62.464 58.88-77.824 73.728-78.336 74.24-63.488 60.416-33.792 31.744q-32.768 29.696-64.512 28.672t-62.464-28.672q-10.24-9.216-38.4-35.328t-65.024-60.928-77.824-72.704-75.776-70.656-59.904-55.808-30.208-27.136q-15.36-12.288-40.96-13.312t-44.032 15.36q-20.48 18.432-19.456 44.544t17.408 41.472q6.144 6.144 37.888 35.84t75.776 70.656 94.72 88.064 94.208 88.064 74.752 70.144 36.352 34.304q38.912 37.888 83.968 38.4t76.8-30.208q6.144-5.12 25.6-24.064t47.616-46.08 62.976-60.928 70.656-68.096 70.144-68.096 62.976-60.928 48.128-46.592zM447.439238 549.888q25.6 23.552 61.44 25.088t64.512-25.088q3.072-3.072 18.432-17.408l38.912-35.84q22.528-21.504 50.688-48.128t57.856-53.248q68.608-63.488 153.6-142.336l0-194.56q0-22.528-16.896-39.936t-45.568-18.432l-193.536 0 0 158.72q0 33.792-31.744 33.792l-195.584 0q-17.408 0-24.064-10.24t-6.656-23.552q0-6.144-0.512-31.232t-0.512-53.76l0-73.728-187.392 0q-29.696 0-47.104 13.312t-17.408 37.888l0 203.776q83.968 76.8 152.576 139.264 28.672 26.624 57.344 52.736t52.224 47.616 39.424 36.352 19.968 18.944z"  horiz-adv-x="1029" />

    
    <glyph glyph-name="liebiao" unicode="&#58897;" d="M187.392 825.344q28.672 0 48.64-19.456t19.968-48.128l0-52.224q0-28.672-19.968-48.64t-48.64-19.968l-54.272 0q-27.648 0-47.616 19.968t-19.968 48.64l0 52.224q0 28.672 19.968 48.128t47.616 19.456l54.272 0zM889.856 825.344q27.648 0 47.616-19.456t19.968-48.128l0-52.224q0-28.672-19.968-48.64t-47.616-19.968l-437.248 0q-28.672 0-48.64 19.968t-19.968 48.64l0 52.224q0 28.672 19.968 48.128t48.64 19.456l437.248 0zM187.392 506.88q28.672 0 48.64-19.968t19.968-48.64l0-52.224q0-27.648-19.968-47.616t-48.64-19.968l-54.272 0q-27.648 0-47.616 19.968t-19.968 47.616l0 52.224q0 28.672 19.968 48.64t47.616 19.968l54.272 0zM889.856 506.88q27.648 0 47.616-19.968t19.968-48.64l0-52.224q0-27.648-19.968-47.616t-47.616-19.968l-437.248 0q-28.672 0-48.64 19.968t-19.968 47.616l0 52.224q0 28.672 19.968 48.64t48.64 19.968l437.248 0zM187.392 187.392q28.672 0 48.64-19.968t19.968-47.616l0-52.224q0-28.672-19.968-48.64t-48.64-19.968l-54.272 0q-27.648 0-47.616 19.968t-19.968 48.64l0 52.224q0 27.648 19.968 47.616t47.616 19.968l54.272 0zM889.856 187.392q27.648 0 47.616-19.968t19.968-47.616l0-52.224q0-28.672-19.968-48.64t-47.616-19.968l-437.248 0q-28.672 0-48.64 19.968t-19.968 48.64l0 52.224q0 27.648 19.968 47.616t48.64 19.968l437.248 0z"  horiz-adv-x="1024" />

    
    <glyph glyph-name="logout" unicode="&#58898;" d="M590.70833333 273.94791666000003l104.625 0 0-160.3125q0-27.84375-8.4375-48.515625t-22.359375-33.75-32.484375-19.40625-39.65625-6.328125l-372.9375 0q-20.25 0-39.65625 8.015625t-34.171875 22.359375-24.046875 33.75-9.28125 43.03125l0 582.1875q0 20.25 9.703125 38.8125t24.890625 32.90625 33.75 23.203125 37.125 8.859375l370.40625 0q21.9375 0 41.34375-9.703125t34.171875-24.46875 23.203125-33.328125 8.4375-36.28125l0-155.25-104.625 0 0.84375 161.15625-372.9375 0-0.84375-588.09375 372.9375 0 0 161.15625zM953.52083333 431.72916666q31.21875-25.3125 1.6875-49.78125-16.875-12.65625-36.703125-31.21875t-41.34375-38.390625-42.609375-39.234375-38.8125-33.75q-19.40625-15.1875-33.328125-15.1875t-13.921875 20.25q1.6875 11.8125 0.421875 29.53125t-1.265625 30.375q0 14.34375-10.125 17.71875t-24.46875 3.375l-33.75 0-51.46875 0q-28.6875 0-60.328125 0.421875t-60.328125 0.421875l-51.46875 0-34.59375 0q-6.75 0-14.765625 1.265625t-14.34375 5.484375-10.125 11.8125-3.796875 19.40625q0 16.03125-0.421875 37.96875t0.421875 38.8125q0 22.78125 10.96875 31.21875t35.4375 7.59375l27.84375 0 48.9375 0q27 0 57.796875-0.421875t58.640625-0.421875l50.625 0 32.0625 0q21.09375-0.84375 35.859375 3.375t14.765625 18.5625q0 11.8125 0.84375 26.578125t0.84375 26.578125q0 19.40625 10.546875 24.46875t26.578125-7.59375q16.03125-13.5 37.546875-31.640625t43.453125-37.125 43.453125-37.546875 39.234375-32.90625z"  horiz-adv-x="1042" />

    
    <glyph glyph-name="profile" unicode="&#58910;" d="M923.627792 773.07138667L81.08276694 773.07138667c-34.23027413 0-62.06747733-27.8142816-62.06747734-62.00089494l0-605.28970986c0-34.18333867 27.8372032-62.00089493 62.06747734-62.00089494l842.54502506 0c34.2750272 0 62.0467392 27.8153728 62.0467392 62.00089494L985.6745312 711.07049173C985.67343894 745.25710507 957.9028192 773.07138667 923.627792 773.07138667M939.7332672 105.78078187000006c0-8.79333867-7.22263147-16.06072213-16.1065664-16.06072214L81.08276694 89.72005973c-8.86101333 0-16.1283968 7.26738453-16.1283968 16.06072214L64.95436907 711.07049173c0 8.79333867 7.26738453 16.0618144 16.1283968 16.0618144l842.54502507 0c8.88393493 0 16.1065664-7.26847573 16.1065664-16.0618144L939.7343584 105.78078187000006zM406.09027307 385.00857067c33.69106027 25.751296 55.8992608 65.94894613 55.8992608 111.43940906 0 77.5224032-63.0323872 140.60063467-140.5111296 140.60063467-77.4787424 0-140.5111296-63.07714027-140.5111296-140.60063467 0-45.49046293 22.18418667-85.68811307 55.8992608-111.43940906-75.10030507-32.75016427-127.83632213-107.58086293-127.83632213-194.70433387 0-12.6518848 10.25161813-22.9700864 22.9700864-22.9700864 12.6737152 0 22.9700864 10.31820053 22.9700864 22.9700864 0 90.35329813 72.33983467 163.7497312 162.06659626 166.081232 1.52486293 0 2.91655893-0.4475264 4.44142187-0.4475264 1.52377067 0 2.91655893 0.4475264 4.3944864 0.4475264 89.81517547-2.33368427 162.13427093-75.7279328 162.13427093-166.081232 0-12.6518848 10.27344853-22.9700864 22.9700864-22.9700864s22.9700864 10.31820053 22.9700864 22.9700864C533.9495168 277.42770772999995 481.19057814 352.2584064 406.09027307 385.00857067M226.90853867 496.44688853c0 52.220816 42.39489387 94.66155413 94.57204907 94.66155414 52.13021973 0 94.5709568-42.44073813 94.5709568-94.66155414 0-50.6042656-40.10705387-91.69915093-90.174288-94.121248-1.47792747 0.08950507-2.87071467 0.4486176-4.3944864 0.4486176-1.52486293 0-2.91765013-0.35911253-4.44142187-0.4486176C266.97084054 404.74882987 226.90853867 445.84262293 226.90853867 496.44688853M847.85401494 595.0554026699999L540.67877867 595.0554026699999c-12.74138987 0-22.9700864-10.31820053-22.9700864-22.96899414 0-12.6518848 10.22869547-22.9700864 22.9700864-22.9700864l307.17523627 0c12.69772907 0 22.9700864 10.31820053 22.9700864 22.9700864C870.82410027 584.7372010700001 860.551744 595.0554026699999 847.85401494 595.0554026699999M847.85401494 453.37852267L540.67877867 453.37852267c-12.74138987 0-22.9700864-10.22869547-22.9700864-22.96899414 0-12.6518848 10.22869547-22.9700864 22.9700864-22.9700864l307.17523627 0c12.69772907 0 22.9700864 10.31820053 22.9700864 22.9700864C870.82410027 443.1498272 860.551744 453.37852267 847.85401494 453.37852267M847.85401494 311.70273493L586.6178592 311.70273493c-12.74029867 0-22.96899413-10.22869547-22.96899413-22.96899413 0-12.6518848 10.22869547-22.9700864 22.96899413-22.9700864l261.23615574 0c12.69772907 0 22.9700864 10.31820053 22.9700864 22.9700864C870.82410027 301.4729472 860.551744 311.70273493 847.85401494 311.70273493"  horiz-adv-x="1024" />

    
    <glyph glyph-name="search2" unicode="&#58912;" d="M937.798221 126.14423399999998L714.895525 349.13084100000003c23.821545 45.681412 37.589107 97.495498 37.589107 152.564721 0 182.559872-148.560524 331.078441-331.079464 331.078441-182.623317 0-331.098907-148.517545-331.098907-331.078441 0-182.559872 148.47559-331.078441 331.098907-331.078441 60.575634 0 117.27089 16.647145 166.206416 45.221948L807.552831-4.1001320000000305c17.938558-17.939581 41.551348-26.867928 65.12423-26.867928s47.182602 8.928347 65.123206 26.867928c17.396205 17.396205 27.033703 40.550555 27.033703 65.164139C964.831924 85.67861400000004 955.194426 108.83194000000003 937.798221 126.14423399999998M133.027248 501.695562c0 158.989037 129.34795 288.358477 288.378943 288.358477 158.948105 0 288.3595-129.36944 288.3595-288.358477 0-99.206466-50.437739-186.899714-126.950344-238.795665-1.044796-0.416486-1.876744-1.252527-2.877537-1.835811-45.515636-30.03813-99.999528-47.727001-158.530596-47.727001C262.375198 213.337085 133.027248 342.663546 133.027248 501.695562M907.594315 26.103774000000044c-19.273972-19.191084-50.562583-19.191084-69.836555 0L623.6995 240.20296599999995c26.157753 20.274766 49.186236 44.305065 68.292386 71.421656l215.601406-215.683271c9.344832-9.262968 14.518668-21.694091 14.518668-34.877345S916.939147 35.44860600000004 907.594315 26.103774000000044M215.169059 508.20993c0 0 42.156122 211.011878 234.186693 224.946238C449.355753 733.156168 185.944458 764.444778 215.169059 508.20993"  horiz-adv-x="1024" />

    
    <glyph glyph-name="bill" unicode="&#58965;" d="M883.2 835.2l-89.6 0c-12.8 0-25.6-9.6-25.6-25.6s9.6-25.6 25.6-25.6l89.6 0c25.6 0 48-22.4 48-48l0-713.6c0-25.6-22.4-48-48-48l-736 0c-25.6 0-48 22.4-48 48l0 713.6c0 25.6 22.4 48 48 48l99.2 0c12.8 0 25.6 9.6 25.6 25.6s-9.6 25.6-25.6 25.6l-99.2 0c-54.4 0-96-41.6-96-96l0-713.6c0-54.4 41.6-96 96-96l736 0c54.4 0 96 41.6 96 96l0 713.6C979.2 793.6 934.4 835.2 883.2 835.2zM393.6 787.2l240 0c12.8 0 25.6 9.6 25.6 25.6s-9.6 25.6-25.6 25.6l-240 0c-12.8 0-25.6-9.6-25.6-25.6S380.8 787.2 393.6 787.2zM294.4 550.4l464 0c12.8 0 25.6 9.6 25.6 25.6s-9.6 25.6-25.6 25.6l-464 0c-12.8 0-25.6-9.6-25.6-25.6S278.4 550.4 294.4 550.4zM294.4 355.20000000000005l464 0c12.8 0 25.6 9.6 25.6 25.6s-9.6 25.6-25.6 25.6l-464 0c-12.8 0-25.6-9.6-25.6-25.6S278.4 355.20000000000005 294.4 355.20000000000005zM294.4 160l464 0c12.8 0 25.6 9.6 25.6 25.6s-9.6 25.6-25.6 25.6l-464 0c-12.8 0-25.6-9.6-25.6-25.6S278.4 160 294.4 160z"  horiz-adv-x="1024" />

    
    <glyph glyph-name="feedback" unicode="&#58966;" d="M883.2 812.8l-742.4 0c-51.2 0-92.8-41.6-92.8-89.6l0-582.4c0-48 41.6-89.6 92.8-89.6l256 0c0 0 6.4-6.4 16-19.2 3.2-3.2 6.4-6.4 9.6-12.8 0 0 6.4-9.6 9.6-12.8 28.8-44.8 51.2-67.2 86.4-67.2 35.2 0 60.8 22.4 89.6 67.2 22.4 35.2 28.8 44.8 28.8 44.8l249.6 0c51.2 0 92.8 41.6 92.8 89.6l0 582.4C976 774.4 934.4 812.8 883.2 812.8zM931.2 140.79999999999995c0-25.6-19.2-44.8-44.8-44.8l-252.8 0c-6.4 0-9.6 0-16-3.2-9.6-6.4-19.2-12.8-28.8-28.8-3.2-6.4-22.4-35.2-22.4-35.2-19.2-32-35.2-44.8-48-44.8-12.8 0-25.6 12.8-48 44.8-3.2 3.2-6.4 12.8-9.6 12.8-3.2 6.4-6.4 9.6-9.6 12.8-19.2 25.6-32 38.4-54.4 38.4l-256 0c-25.6 0-44.8 19.2-44.8 44.8l0 582.4c0 25.6 22.4 44.8 48 44.8l742.4 0c25.6 0 48-19.2 48-44.8L934.4 140.79999999999995zM220.8 412.8a1.6 1.6 0 1 1 102.4 0 1.6 1.6 0 1 1-102.4 0ZM460.8 412.8a1.6 1.6 0 1 1 102.4 0 1.6 1.6 0 1 1-102.4 0ZM697.6 412.8a1.6 1.6 0 1 1 102.4 0 1.6 1.6 0 1 1-102.4 0Z"  horiz-adv-x="1024" />

    
    <glyph glyph-name="setup8" unicode="&#59023;" d="M545.784454-66.53920600000004l-65.943898 0c-29.341259 0-54.624085 25.281803-54.624085 54.615898L425.216471 27.537425999999982c0 9.623171-7.826246 20.911262-16.690124 23.680329l-1.566682 0.611937-55.725162 23.104207-0.880043 0.494257c-8.153704 4.41045-22.017456 2.376117-28.55229-4.187369l-28.17469-28.123524c-9.930163-9.977235-23.239284-15.494902-37.432541-15.494902-14.195304 0-27.507494 5.517667-37.487799 15.541975l-46.682205 46.630017c-20.60427 20.603247-20.6319 54.233182-0.069585 74.974575l28.15013 28.106128c6.637164 6.574742 8.676613 20.599154 4.253884 28.909423l-0.831948 1.768273-23.164582 56.128345-0.26913 0.682545c-2.803859 9.03477-14.279215 17.394159-23.611767 17.394159l-39.631626 0c-29.391401 0-52.861952 24.065092-52.861952 53.193503l0 65.943898c0 28.770254 22.998807 51.754734 52.919257 51.754734l39.575344 0c9.081843 0 20.803815 8.830109 23.666002 18.057261l0.567935 1.476631 23.163559 57.088206 0.505513 0.913812c4.40431 8.220219 2.319835 22.224164-4.2897 28.830629l-28.04166 28.087709c-9.964956 9.921977-15.486716 23.216771-15.502066 37.396725-0.01535 14.201443 5.492084 27.53717 15.507182 37.552268l46.6556 46.614667c9.94142 9.985422 23.248494 15.503089 37.432541 15.503089 0.001023 0 0 0 0.001023 0 14.184047 0 27.490098-5.51869 37.46938-15.540951l28.039613-28.05087c6.557346-6.525624 20.500916-8.596795 28.655643-4.231371l0.893346 0.478907 57.375755 23.64963c8.836249 2.731204 16.634866 14.037714 16.634866 23.719214l0 39.632649c0 28.967752 24.777313 52.095495 54.624085 52.095495L545.784454 831.923636c29.161157 0 52.370765-22.636556 52.370765-52.095495l0-39.632649c0-9.127891 8.709359-20.85498 17.767666-23.674189l1.51654-0.577145 56.639998-23.113417 0.923022-0.509606c8.202822-4.424776 22.184255-2.353604 28.788673 4.254907l28.163433 27.912723c9.895371 9.94142 23.179932 15.33936 37.352723 15.33936 0.019443 0 0.040932 0 0.060375 0 14.18814 0 27.508517-5.375427 37.516452-15.384385l46.709835-46.554292c10.004865-9.960863 15.524578-23.254633 15.524578-37.47552 0-14.18814-5.498224-27.506471-15.479553-37.532825l-28.16855-28.152177c-6.580882-6.610558-8.640798-20.771069-4.204765-29.107945l0.478907-0.896416 23.654746-57.956993c2.902096-9.255805 14.635325-18.114566 23.686469-18.114566l39.132252 0 0 0.573051c27.629267 0 52.188616-22.984481 52.188616-52.327786l0-65.998133c0-29.590945-22.985504-53.138244-51.746548-53.138244l-39.630602 0c-9.337669 0-20.84884-8.372691-23.686469-17.423835l-0.580215-1.51654-23.086811-56.240909-0.468674-0.860601c-4.419659-8.30413-2.393513-22.320355 4.169973-28.855188l28.135804-28.02017c10.031471-10.029424 15.539928-23.350824 15.537881-37.541011-0.004093-14.186094-5.514597-27.505447-15.518438-37.505195l-46.747697-46.682205c-9.920954-9.964956-23.219841-15.506159-37.406958-15.506159-0.019443 0-0.040932 0-0.060375 0-14.192234 0-27.514657 5.514597-37.518498 15.517415l-28.039613 28.095895c-6.490831 6.490831-20.807908 8.575306-28.887934 4.206812l-0.951675-0.514723-57.93755-23.680329c-9.087982-2.859118-17.823947-14.594393-17.823947-23.691585l0-39.460734C598.155219-41.76394000000005 574.45954-66.53920600000004 545.784454-66.53920600000004zM421.86719 89.10771299999999c25.192775-8.370645 44.282552-34.650171 44.282552-61.570287l0-39.460734c0-7.114025 6.569626-13.68365 13.691837-13.68365L545.784454-25.606957999999963c6.496971 0 12.461823 6.043646 12.461823 13.68365L558.246277 27.537425999999982c0 26.273387 19.516496 53.131081 44.901653 61.58052l53.859675 22.062482c23.62814 12.116969 56.342216 7.098675 75.118861-11.6749l28.009937-28.1532c2.432399-2.430352 5.678326-3.837398 9.179057-3.837398 0.00614 0 0.011256 0 0.01535 0 3.482311 0 6.726192 1.39886 9.135054 3.820002l46.780443 46.738487c2.436492 2.436492 3.783163 5.724375 3.78521 9.224082 0 3.495614-1.344624 6.774287-3.787256 9.216919l-28.106128 27.998681c-18.693758 18.609847-23.762193 51.349505-11.773138 75.036997l22.083971 53.603849c8.374738 25.167193 35.224246 44.51382 61.578474 44.51382l39.630602 0c7.745405 0 10.8143 7.086395 10.8143 13.229303l0 65.998133c0 6.862291-5.116531 12.07399-11.256368 12.302187l0-1.479701-39.132252 0c-26.236548 0-53.099359 20.149922-61.585637 45.735647l-22.083971 54.261834c-11.960403 23.654746-6.913457 56.502875 11.728112 75.228355l28.16855 28.192086c2.430352 2.441609 3.78828 5.764284 3.78828 9.295714 0 3.498684-1.334391 6.762007-3.759627 9.17394l-46.741557 46.577828c-2.462075 2.462075-5.736655 3.734044-9.234315 3.734044-0.004093 0-0.010233 0-0.013303 0-3.465938 0-6.700609-1.255597-9.105379-3.671623l-28.198226-28.037567c-18.703991-18.710131-51.417043-23.734564-75.000158-11.69025l-53.865815 22.072715c-25.403576 8.388041-44.934398 35.255968-44.934398 61.60508l0 39.632649c0 7.253194-5.517667 12.186554-12.461823 12.186554l-65.943898 0c-7.517207 0-13.691837-5.51869-13.691837-12.186554l0-39.632649c0-27.027563-19.107173-53.336766-44.325531-61.643965l-53.501518-21.99699c-23.834848-12.168134-55.857169-7.234775-74.878384 11.69639l-28.130687 28.115338c-2.441609 2.451842-5.690606 3.787256-9.152451 3.787256-3.462868 0.001023-6.704702-1.334391-9.117658-3.758604l-46.690392-46.64639c-2.438539-2.438539-3.784186-5.710049-3.781116-9.207709 0.004093-3.474125 1.339508-6.716982 3.762697-9.128915l28.068266-28.121478c18.698874-18.690688 23.782659-51.389414 11.808954-74.973552l-22.124903-54.813397c-8.413624-25.616424-35.281551-45.783743-61.603033-45.783743l-39.575344 0c-6.630001 0-13.010315-3.411703-13.010315-10.822486l0-65.943898c0-6.942109 5.753027-13.284561 12.95301-13.284561l39.631626 0c26.380834 0 53.195549-19.35072 61.524239-44.537356l22.182208-53.629431c12.027941-23.731494 6.918573-56.449663-11.863189-75.05644l-28.022217-27.949562c-5.021364-5.066389-5.048993-13.348006 0.010233-18.409279l46.713928-46.653553c2.452865-2.464121 5.695722-3.794419 9.168824-3.794419 3.472078 0 6.711865 1.336438 9.124821 3.759627l28.181853 28.122501c18.641569 18.730597 51.440579 23.752983 75.011414 11.642155L421.86719 89.10771299999999zM513.734504 164.11912700000005c-120.639614 0-218.786958 98.147344-218.786958 218.786958s98.147344 218.786958 218.786958 218.786958 218.786958-98.147344 218.786958-218.786958S634.375142 164.11912700000005 513.734504 164.11912700000005zM513.734504 561.675632c-98.573039 0-178.769546-80.195483-178.769546-178.769546s80.195483-178.769546 178.769546-178.769546 178.769546 80.195483 178.769546 178.769546S612.308567 561.675632 513.734504 561.675632z"  horiz-adv-x="1024" />

    
    <glyph glyph-name="phone" unicode="&#58932;" d="M233.778 766.3820000000001c4.719-4.22 11.714-11.174 21.099-22.284 13.874-16.423 29.387-37.656 44.861-61.405 30.009-46.055 48.741-84.212 54.135-98.747-1.27-5.075-4.854-11.448-11.496-22.598-12.505-20.992-29.63-49.741-29.63-90.518 0-25.987 12.096-54.066 39.219-91.043 17.721-24.158 41.286-51.342 68.149-78.612 26.119-26.515 53.359-50.935 76.702-68.762 36.802-28.105 63.451-40.097 89.108-40.097 36.072 0 64.861 15.349 87.993 27.682 12.694 6.768 24.768 13.205 33.596 14.651 12.498-4.425 48.54-22.768 102.228-61.148 45.318-32.397 73.236-57.52 85.817-70.75-4.181-22.79-17.587-46.155-38.186-65.94-12.037-11.562-25.795-21.099-39.787-27.582-12.117-5.614-24.097-8.706-33.731-8.706-55.427 0-124.538 23.315-199.861 67.426-73.589 43.095-149.913 104.029-220.721 176.215-69.597 70.951-128.733 147.415-171.016 221.124-21.044 36.685-37.238 71.619-48.132 103.833-10.554 31.207-15.906 59.109-15.906 82.931 0 7.975 3.646 18.727 10.266 30.276 7.857 13.708 19.619 28.202 34.012 41.913 13.543 12.901 29.149 24.766 43.943 33.408C223.528 761.789 229.364 764.571 233.778 766.3820000000001M241.316 833.256c-52.088 0-177.097-94.596-177.097-181.205 0-253.175 435.762-715.528 719.636-715.528 78.135 0 177.102 83.939 177.102 181.222 0 33.301-203.143 181.205-250.023 181.205-48.18 0-83.343-42.634-125.009-42.634-41.671 0-209.179 167.886-209.179 214.513 0 46.645 41.666 69.288 41.666 117.256C418.413 622.733 293.399 833.256 241.316 833.256L241.316 833.256z"  horiz-adv-x="1024" />

    
    <glyph glyph-name="setup8a" unicode="&#58937;" d="M580.193-126.543l-136.738 0c-14.287 0-26.843 9.471-30.769 23.208l-41.943 146.79-133.479-74.152c-12.494-6.938-28.07-4.755-38.171 5.35l-96.688 96.719c-10.1 10.104-12.28 25.677-5.342 38.165l74.152 133.469-146.81 41.953c-13.737 3.926-23.208 16.481-23.208 30.769l0 136.75c0 14.288 9.473 26.845 23.211 30.77l146.795 41.932-74.142 133.466c-6.938 12.489-4.756 28.065 5.346 38.168l96.688 96.688c10.105 10.104 25.683 12.283 38.169 5.346l133.478-74.158 41.944 146.802c3.925 13.738 16.481 23.209 30.769 23.209l136.738 0c14.287 0 26.844-9.471 30.769-23.209l41.944-146.801 133.477 74.157c12.488 6.938 28.064 4.758 38.167-5.344l96.701-96.689c10.104-10.103 12.286-25.679 5.348-38.169l-74.146-133.466 146.799-41.932c13.738-3.925 23.211-16.481 23.211-30.77l0-136.75c0-14.287-9.471-26.843-23.208-30.769l-146.813-41.953 74.156-133.468c6.938-12.489 4.758-28.064-5.344-38.167l-96.701-96.719c-10.101-10.104-25.676-12.288-38.169-5.349l-133.479 74.152-41.943-146.79C607.035-117.072 594.48-126.543 580.193-126.543zM467.591-62.543000000000006l88.465 0 46.386 162.337c2.683 9.387 9.503 17.036 18.522 20.772 9.02 3.735 19.252 3.151 27.786-1.591l147.611-82.003 62.567 62.579-82.01 147.604c-4.741 8.534-5.328 18.767-1.592 27.787 3.735 9.02 11.385 15.841 20.772 18.523l162.362 46.396 0 88.474-162.349 46.374c-9.388 2.682-17.038 9.502-20.774 18.522-3.737 9.021-3.151 19.253 1.59 27.787l81.999 147.603-62.562 62.555-147.613-82.012c-8.533-4.741-18.767-5.329-27.786-1.592-9.021 3.736-15.842 11.386-18.523 20.773l-46.388 162.351-88.463 0-46.388-162.351c-2.682-9.388-9.503-17.037-18.523-20.773-9.019-3.734-19.252-3.149-27.786 1.592l-147.612 82.012-62.554-62.554 81.996-147.604c4.741-8.535 5.326-18.768 1.59-27.787-3.736-9.021-11.387-15.841-20.774-18.522l-162.344-46.373 0-88.475 162.358-46.396c9.388-2.683 17.037-9.504 20.772-18.523 3.735-9.021 3.149-19.252-1.592-27.786l-82.008-147.606 62.559-62.577 147.61 82.002c8.534 4.74 18.767 5.326 27.786 1.591 9.02-3.736 15.84-11.386 18.522-20.772L467.591-62.543000000000006zM511.829 173.47699999999998c-116.141 0-210.627 94.463-210.627 210.573 0 116.154 94.486 210.652 210.627 210.652 56.258 0 109.147-21.912 148.926-61.7 39.776-39.786 61.683-92.685 61.683-148.952 0-56.249-21.907-109.13-61.688-148.901C620.973 195.37900000000002 568.085 173.47699999999998 511.829 173.47699999999998zM511.829 530.702c-80.851 0-146.627-65.788-146.627-146.652 0-80.82 65.776-146.573 146.627-146.573 80.84 0 146.608 65.753 146.608 146.573C658.438 464.914 592.669 530.702 511.829 530.702z"  horiz-adv-x="1024" />

    
    <glyph glyph-name="exit" unicode="&#59339;" d="M918.4 406.4l-160 160c-12.8 12.8-32 12.8-44.8 0-12.8-12.8-12.8-32 0-44.8l105.6-105.6L512 416c-19.2 0-32-12.8-32-32s12.8-32 32-32l307.2 0-105.6-105.6c-12.8-12.8-12.8-32 0-44.8 6.4-6.4 12.8-9.6 22.4-9.6 9.6 0 16 3.2 22.4 9.6l160 163.2c0 0 0 3.2 3.2 3.2C931.2 377.6 931.2 396.8 918.4 406.4zM832 160c-19.2 0-32-12.8-32-32l0-64c0-19.2-12.8-32-32-32L224 32c-19.2 0-32 12.8-32 32L192 704c0 19.2 12.8 32 32 32l544 0c19.2 0 32-12.8 32-32l0-64c0-19.2 12.8-32 32-32s32 12.8 32 32L864 704c0 54.4-41.6 96-96 96L224 800C169.6 800 128 758.4 128 704l0-640c0-54.4 41.6-96 96-96l544 0c54.4 0 96 41.6 96 96l0 64C864 147.2 851.2 160 832 160z"  horiz-adv-x="1024" />

    
    <glyph glyph-name="email" unicode="&#58916;" d="M893.842 678.443H130.159c-16.261 0-29.443-13.182-29.443-29.443v-530c0-16.261 13.182-29.443 29.443-29.443h763.683c16.261 0 29.443 13.183 29.443 29.443V649c0 16.261-13.182 29.443-29.443 29.443z m-85.584-58.886L512 388.349 215.742 619.557h592.516zM159.602 148.44299999999998v440.23l334.283-260.885A29.4 29.4 0 0 1 512 321.557a29.4 29.4 0 0 1 18.115 6.231l334.283 260.884v-440.229H159.602z"  horiz-adv-x="1024" />

    
    <glyph glyph-name="glob" unicode="&#58926;" d="M909.989 552.719c-21.76 51.446-52.904 97.643-92.568 137.307-39.663 39.664-85.86 70.808-137.306 92.568-53.28 22.536-109.858 33.962-168.164 33.962S397.067 805.13 343.787 782.594c-51.446-21.76-97.643-52.904-137.307-92.568-39.664-39.664-70.808-85.86-92.568-137.307-22.536-53.28-33.962-109.858-33.962-168.164s11.426-114.884 33.962-168.164c21.76-51.445 52.904-97.643 92.568-137.306 39.664-39.664 85.86-70.809 137.307-92.568 53.28-22.535 109.858-33.962 168.164-33.962s114.884 11.427 168.164 33.962c51.445 21.76 97.643 52.904 137.306 92.568 39.664 39.663 70.809 85.86 92.568 137.306 22.535 53.28 33.962 109.858 33.962 168.164s-11.427 114.884-33.962 168.164zM543.951 519.97c17.57 0.243 35.095 0.683 52.536 1.368a1990.762 1990.762 0 0 1 91.131 5.678c10.157-34.378 16.643-71.314 19.389-110.46H543.951V519.97z m0 64.069V732.59c17.617-12.176 39.372-29.845 61.074-54.197 23.42-26.28 43.109-56.138 58.784-89.019-41.937-3.147-82.117-4.783-119.858-5.335z m-64 144.763v-144.705a2038.572 2038.572 0 0 0-103.41 4.309 1929.6 1929.6 0 0 0-11.183 0.786c15.195 31.915 34.175 60.991 56.676 86.711 20.284 23.185 40.722 40.49 57.917 52.899zM370.842 524.646a2124.301 2124.301 0 0 1 109.109-4.606v-103.484H322.25c2.742 39.079 9.208 75.96 19.335 110.285 9.453-0.776 19.21-1.512 29.257-2.195z m-112.731-108.09H145.342c3.916 45.757 16.208 89.778 36.139 130.276 20.257-3.578 52.836-8.759 95.407-13.641-9.902-36.699-16.182-75.682-18.777-116.635z m-0.859-64c1.975-39.144 9.712-78.242 23.101-116.799-44.093-4.976-77.797-10.319-98.621-13.992-20.08 40.64-32.458 84.841-36.39 130.792h111.91z m64.098 0h158.601v-104.048c-36.37-0.602-72.818-2.13-109.109-4.601-8.41-0.573-16.612-1.182-24.609-1.821-14.322 36.523-22.659 73.543-24.883 110.47z m158.601-168.103v-131.712c-16.974 15.877-36.574 35.962-56.038 59.735-18.064 22.064-33.892 44.698-47.379 67.668a2038.38 2038.38 0 0 0 103.417 4.309z m64-136.665V184.51300000000003c34.387-0.503 70.782-1.903 108.68-4.527-13.467-22.915-29.263-45.496-47.286-67.509-21.547-26.32-43.262-48.119-61.394-64.689z m52.536 199.426a2063.187 2063.187 0 0 1-52.536 1.384V352.55600000000004h163.958c-2.227-36.975-10.582-74.045-24.939-110.615a1994.972 1994.972 0 0 1-86.483 5.273z m175.521 105.342H878.56c-3.928-45.898-16.283-90.051-36.322-130.652a1822.84 1822.84 0 0 1-93.476 13.439c13.478 38.691 21.264 77.929 23.246 117.213z m-0.859 64c-2.605 41.111-8.924 80.238-18.891 117.061a1821.491 1821.491 0 0 1 90.233 13.075c19.89-40.46 32.158-84.432 36.07-130.136H771.149z m1.017 228.215a373.188 373.188 0 0 0 34.046-39.155 1772.853 1772.853 0 0 0-75.117-9.98c-19.529 46.785-45.825 88.91-78.291 125.338a423.863 423.863 0 0 1-5.386 5.927c46.185-18.263 88.573-45.955 124.748-82.13zM384.81 730.077a420.788 420.788 0 0 1-8.355-9.102c-32.552-36.525-58.904-78.775-78.449-125.71-32.357 3.484-59.48 7.244-80.226 10.469a373.386 373.386 0 0 0 33.956 39.037c38.338 38.338 83.654 67.152 133.074 85.306zM251.736 124.34100000000001a373.444 373.444 0 0 0-33.584 38.548c22.526 3.498 52.529 7.614 88.626 11.328 18.229-35.542 41.31-70.356 68.867-103.808a678.068 678.068 0 0 1 35.727-39.995c-59.757 16.875-114.524 48.814-159.636 93.927z m368.249-91.745a677.032 677.032 0 0 1 33.629 37.814c27.469 33.344 50.487 68.043 68.689 103.466a1780.315 1780.315 0 0 0 83.528-10.88 373.34 373.34 0 0 0-33.665-38.654c-43.23-43.232-95.324-74.373-152.181-91.746z"  horiz-adv-x="1024" />

    
    <glyph glyph-name="network" unicode="&#59546;" d="M220.72888889 217.03111112h-72.81777778V435.48444445h327.68V581.12h72.81777778v-145.63555555h327.68v-218.45333333h-72.81777778V362.66666667000004H548.40888889v-145.63555555h-72.81777778V362.66666667000004H220.72888889v-145.63555555z m291.27111111 436.90666666c60.07466667 0 109.22666667 49.152 109.22666667 109.22666667S572.07466667 872.39111112 512 872.39111112s-109.22666667-49.152-109.22666667-109.22666667 49.152-109.22666667 109.22666667-109.22666667z m0-509.72444444c-60.07466667 0-109.22666667-49.152-109.22666667-109.22666667s49.152-109.22666667 109.22666667-109.22666667 109.22666667 49.152 109.22666667 109.22666667-49.152 109.22666667-109.22666667 109.22666667z m-327.68 0c-60.07466667 0-109.22666667-49.152-109.22666667-109.22666667s49.152-109.22666667 109.22666667-109.22666667 109.22666667 49.152 109.22666667 109.22666667-49.152 109.22666667-109.22666667 109.22666667z m655.36 0c-60.07466667 0-109.22666667-49.152-109.22666667-109.22666667s49.152-109.22666667 109.22666667-109.22666667 109.22666667 49.152 109.22666667 109.22666667-49.152 109.22666667-109.22666667 109.22666667z"  horiz-adv-x="1024" />

    
    <glyph glyph-name="key-line" unicode="&#59555;" d="M830.4 382.4C786.4 426.4 729.6 448 672 448c-48.8 0-96.8-16-136.8-47.2L277.6 658.4 384 764.8l-29.6 29.6L224 712 128.8 807.2l-44-44 406.4-406.4c-64.8-88-56.8-212 22.4-291.2 44-44 100.8-65.6 158.4-65.6s114.4 21.6 158.4 65.6c87.2 87.2 87.2 229.6 0 316.8z m-45.6-271.2c-30.4-30.4-70.4-47.2-112.8-47.2-42.4 0-83.2 16.8-112.8 47.2-62.4 62.4-62.4 164 0 226.4C588.8 367.20000000000005 629.6 384 672 384s83.2-16.8 112.8-47.2c62.4-62.4 62.4-163.2 0-225.6z"  horiz-adv-x="1024" />

    
    <glyph glyph-name="service-heart" unicode="&#59561;" d="M384 0h-64v70.4c0 15.2-10.4 28-24.8 31.2C159.2 128 64 251.20000000000005 64 400v32h64v-32c0-118.4 73.6-215.2 179.2-236 44.8-8.8 76.8-48 76.8-94.4v-69.6z m320 0h-64v70.4c0 45.6 32 85.6 76.8 94.4C822.4 184.79999999999995 896 281.6 896 400v32h64v-32c0-148.8-95.2-272-231.2-298.4-14.4-3.2-24.8-16-24.8-31.2v-70.4z m-62.4 703.2c52.8 0 92.8-40 92.8-92.8 0-65.6-58.4-121.6-180.8-231.2-12.8-12-26.4-24-40.8-36.8-14.4 13.6-28.8 26.4-42.4 38.4C349.6 489.6 291.2 544 291.2 610.4c0 52.8 40 92.8 92.8 92.8 29.6 0 60.8-14.4 80-37.6l48.8-57.6 48.8 57.6c19.2 23.2 50.4 37.6 80 37.6m0 64C592 767.2 544 744 512.8 707.2c-31.2 36.8-79.2 60-128.8 60-88 0-156.8-68.8-156.8-156.8 0-108.8 96.8-183.2 244-316.8l41.6-37.6 41.6 37.6c147.2 133.6 244 208.8 244 316.8 0 88-68.8 156.8-156.8 156.8z"  horiz-adv-x="1024" />

    
    <glyph glyph-name="search-line" unicode="&#59576;" d="M384 768c140.8 0 256-115.2 256-256S524.8 256 384 256 128 371.20000000000005 128 512s115.2 256 256 256m0 64C207.2 832 64 688.8 64 512s143.2-320 320-320 320 143.2 320 320S560.8 832 384 832z m294.4-569.6l-45.6-45.6 272-272 45.6 45.6-272 272z"  horiz-adv-x="1024" />

    
    <glyph glyph-name="home-line" unicode="&#59577;" d="M512.8 689.6L768 506.4V64H640V320H384v-256H256V506.4l256.8 183.2m0 71.2c-6.4 0-12.8-1.6-18.4-5.6L104 476.8c-12.8-8.8-6.4-28.8 9.6-28.8H192v-432c0-8.8 7.2-16 16-16h224c8.8 0 16 7.2 16 16V256h128v-240c0-8.8 7.2-16 16-16h224c8.8 0 16 7.2 16 16V448h78.4c15.2 0 21.6 20 9.6 28.8L531.2 754.4c-5.6 4-12 6.4-18.4 6.4z"  horiz-adv-x="1024" />

    
    <glyph glyph-name="search1" unicode="&#59578;" d="M704 268.79999999999995h-40.8l-14.4 14.4c50.4 58.4 80 133.6 80 216C728.8 683.2 580 832 396 832S64.8 682.4 64.8 499.2s148.8-332.8 332.8-332.8c82.4 0 158.4 30.4 216 80l14.4-14.4v-40l256-255.2 76 76c-0.8 0-256 256-256 256z m-307.2 0c-127.2 0-230.4 103.2-230.4 230.4s103.2 230.4 230.4 230.4 230.4-103.2 230.4-230.4-103.2-230.4-230.4-230.4z"  horiz-adv-x="1024" />

    
    <glyph glyph-name="bell" unicode="&#59584;" d="M512 684l48.8-12c101.6-24.8 176-117.6 176-220.8v-254.4l18.4-18.4 24.8-25.6h-536l24.8 25.6 18.4 18.4V451.2c0 103.2 73.6 196.8 176 220.8l48.8 12M512 832c-36.8 0-64-30.4-64-68v-30.4C320.8 704 223.2 588.8 223.2 451.2v-228.8L136 132.79999999999995v-44.8h752v44.8l-87.2 89.6V451.2c0 137.6-97.6 252.8-224.8 283.2v28.8c0 32-17.6 60.8-48 67.2-5.6 1.6-11.2 1.6-16 1.6z m88-808H424c0-49.6 38.4-88 88-88s88 38.4 88 88z"  horiz-adv-x="1024" />

    
    <glyph glyph-name="more-h" unicode="&#59588;" d="M320 384c0-35.2-28.8-64-64-64s-64 28.8-64 64 28.8 64 64 64 64-28.8 64-64z m192 64c-35.2 0-64-28.8-64-64s28.8-64 64-64 64 28.8 64 64-28.8 64-64 64z m256 0c-35.2 0-64-28.8-64-64s28.8-64 64-64 64 28.8 64 64-28.8 64-64 64z"  horiz-adv-x="1024" />

    
    <glyph glyph-name="more-v" unicode="&#59589;" d="M512 192c35.2 0 64-28.8 64-64s-28.8-64-64-64-64 28.8-64 64 28.8 64 64 64z m-64 192c0-35.2 28.8-64 64-64s64 28.8 64 64-28.8 64-64 64-64-28.8-64-64z m0 256c0-35.2 28.8-64 64-64s64 28.8 64 64-28.8 64-64 64-64-28.8-64-64z"  horiz-adv-x="1024" />

    
    <glyph glyph-name="user_line" unicode="&#59592;" d="M512 703.2c70.4 0 128-57.6 128-128s-57.6-128-128-128c-36 0-68.8 14.4-93.6 40.8-24.8 26.4-36.8 60-34.4 96 4 63.2 56.8 115.2 120 118.4 2.4 0.8 4.8 0.8 8 0.8M512 256c53.6 0 140.8-13.6 216-43.2 64-25.6 104-57.6 104-84v-64.8H192v64.8c0 26.4 40 58.4 104 84 75.2 29.6 162.4 43.2 216 43.2m0 511.2h-11.2c-96-5.6-174.4-83.2-180.8-178.4-7.2-112 80.8-204.8 191.2-204.8 105.6 0 192 86.4 192 192S617.6 767.2 512 767.2zM512 320c-128 0-384-64-384-191.2v-96c0-17.6 14.4-32 32-32h704c17.6 0 32 14.4 32 32V129.60000000000002C896 256 640 320 512 320z"  horiz-adv-x="1024" />

    
    <glyph glyph-name="user" unicode="&#59593;" d="M499.2 792.74666667c-101.54666667-5.97333333-185.17333333-88.74666667-192-190.29333334-7.68-119.46666667 86.18666667-219.30666667 203.94666667-219.30666666 113.49333333 0 204.8 92.16 204.8 204.8 0.85333333 117.76-98.13333333 211.62666667-216.74666667 204.8zM512 316.58666667c-136.53333333 0-408.74666667-68.26666667-408.74666667-204.8v-102.4c0-18.77333333 15.36-34.13333333 34.13333334-34.13333334h749.22666666c18.77333333 0 34.13333333 15.36 34.13333334 34.13333334V112.63999999999999c0 135.68-272.21333333 203.94666667-408.74666667 203.94666667z"  horiz-adv-x="1024" />

    
    <glyph glyph-name="edit" unicode="&#59596;" d="M960-64H64v64h896v-64z m-73.6 686.4l-84-84-45.6-45.6L384 120l-192-56 56 192 502.4 502.4c4 4 9.6 6.4 14.4 6.4 4 0 8-1.6 10.4-4L888 648c7.2-7.2 5.6-17.6-1.6-25.6zM712 538.4L666.4 584 304.8 222.39999999999998l-18.4-64 64 18.4L712 538.4z m97.6 97.6l-45.6 45.6-52-52 45.6-45.6 52 52z"  horiz-adv-x="1024" />

    
    <glyph glyph-name="activity" unicode="&#59102;" d="M800 50.912c0-1.76-0.736-2.784-0.096-2.88l-574.656-0.416C224.992 47.808 224 48.96 224 50.912v477.12h576v-477.12zM224 685.12c0 1.728 0.64 2.752 0.096 2.912H352V672a32 32 0 1 1 64 0v16h192V672a32 32 0 1 1 64 0v16h127.008a4.736 4.736 0 0 0 0.992-2.88V592H224V685.12zM799.84 752H672V768a32 32 0 0 1-64 0v-16h-192V768a32 32 0 0 1-64 0v-16H223.712C188.576 752 160 721.984 160 685.12V50.88c0-36.896 28.608-66.88 63.744-66.88h576.512c35.136 0 63.744 29.984 63.744 66.88V685.12c0 36.896-28.768 66.912-64.16 66.912zM384 336h256a32 32 0 0 1 0 64h-256a32 32 0 0 1 0-64M384 176h256a32 32 0 0 1 0 64h-256a32 32 0 0 1 0-64"  horiz-adv-x="1024" />

    
    <glyph glyph-name="activity_fill" unicode="&#59103;" d="M799.84 752H672V768a32 32 0 0 1-64 0v-16h-192V768a32 32 0 0 1-64 0v-16H223.712C188.576 752 160 721.984 160 685.088V592h704V685.088c0 36.896-28.768 66.912-64.16 66.912M640 400a32 32 0 0 0 0-64h-256a32 32 0 0 0 0 64h256z m-288-192a32 32 0 0 0 32 32h256a32 32 0 0 0 0-64h-256a32 32 0 0 0-32 32z m480 320H160v-477.12c0-36.864 28.608-66.88 63.744-66.88h576.512c35.136 0 63.744 30.016 63.744 66.88V528h-32z"  horiz-adv-x="1024" />

    
    <glyph glyph-name="add" unicode="&#59104;" d="M512 64a32 32 0 0 1 32 32v256h256a32 32 0 0 1 0 64h-256V672a32 32 0 0 1-64 0v-256H224a32 32 0 0 1 0-64h256v-256a32 32 0 0 1 32-32"  horiz-adv-x="1024" />

    
    <glyph glyph-name="addition_fill" unicode="&#59105;" d="M683.968 361.056H544v-139.968a32 32 0 0 0-64 0v139.968h-139.968a32 32 0 0 0 0 64H480v139.968a32 32 0 0 0 64 0v-139.968h139.968a32 32 0 0 0 0-64M512 768C300.256 768 128 595.712 128 384c0-211.744 172.256-384 384-384s384 172.256 384 384c0 211.712-172.256 384-384 384"  horiz-adv-x="1024" />

    
    <glyph glyph-name="addition" unicode="&#59106;" d="M512 64c-176.448 0-320 143.552-320 320S335.552 704 512 704s320-143.552 320-320-143.552-320-320-320m0 704C300.256 768 128 595.744 128 384s172.256-384 384-384 384 172.256 384 384S723.744 768 512 768M683.936 425.056H544v139.968a32 32 0 1 1-64 0v-139.968h-139.936a32 32 0 0 1 0-64H480v-139.968a32 32 0 0 1 64 0v139.968h139.968a32 32 0 0 1 0 64"  horiz-adv-x="1024" />

    
    <glyph glyph-name="addpeople_fill" unicode="&#59107;" d="M550.4 71.584c-24.736 57.536-53.216 158.016 2.88 237.376 1.216 0.96 2.08 1.792 3.072 2.656A176.864 176.864 0 0 1 627.2 438.4c0.512 5.568 1.216 11.072 1.216 16.768V559.936C628.416 657.024 552.704 736 459.68 736c-93.024 0-168.736-78.976-168.736-176.064v-104.736c0-60.16 29.12-113.312 73.344-145.088a911.264 911.264 0 0 1-158.08-53.28C179.84 245.76 160 214.912 160 185.088v-113.76c0-3.52 0.544-6.976 1.632-10.304 8.64-26.432 31.936-44.16 58.016-44.16h309.664a29.76 29.76 0 0 1 19.68 7.936c6.592 5.888 11.04 14.304 11.04 24.064 0 0.768-0.448 2.048-0.704 3.136a69.664 69.664 0 0 1-8.928 19.584M804.48 170.752h-39.296V128c0-12.384-9.6-22.4-21.504-22.4a21.952 21.952 0 0 0-21.504 22.4v42.752H681.6a21.952 21.952 0 0 0-21.504 22.4c0 12.384 9.6 22.4 21.504 22.4h40.576V256c0 12.384 9.6 22.4 21.504 22.4 11.904 0 21.504-10.016 21.504-22.4v-40.448h39.296c11.904 0 21.504-10.016 21.504-22.4 0-12.384-9.6-22.4-21.504-22.4m-16.064 207.296A176.64 176.64 0 0 1 743.68 384c-101.632 0-184.32-86.08-184.32-192 0-105.888 82.688-192 184.32-192 15.456 0 30.4 2.24 44.736 5.952C868.48 26.88 928 102.208 928 192s-59.52 165.152-139.584 186.048"  horiz-adv-x="1024" />

    
    <glyph glyph-name="addpeople" unicode="&#59108;" d="M352.416 455.2v104.736C352.416 621.76 400.512 672 459.68 672s107.296-50.24 107.296-112.064v-104.736c0-61.792-48.128-112.064-107.296-112.064-59.168 0-107.264 50.24-107.264 112.064m176.896-374.336l-307.84 0.768v103.456c0 4.224 4.608 11.104 8.608 12.768 1.312 0.64 134.912 61.536 237.12 61.536h31.648c16.96 0 30.72 14.336 30.72 32 0 1.216-0.544 2.24-0.672 3.424 58.56 27.616 99.52 89.056 99.52 160.384v104.736C628.416 657.024 552.736 736 459.68 736c-93.024 0-168.704-78.976-168.704-176.064v-104.736c0-60.16 29.088-113.312 73.312-145.088a912.416 912.416 0 0 1-158.08-53.28C179.84 245.76 160 214.912 160 185.088v-113.76c0-3.52 0.544-6.976 1.632-10.304 8.64-26.432 31.936-44.16 58.048-44.16h309.632c16.96 0 30.72 14.336 30.72 32s-13.76 32-30.72 32M743.68 64c-67.776 0-122.88 57.408-122.88 128s55.104 128 122.88 128 122.88-57.408 122.88-128-55.104-128-122.88-128m0 320c-101.664 0-184.32-86.112-184.32-192s82.656-192 184.32-192c101.664 0 184.32 86.112 184.32 192s-82.656 192-184.32 192M804.48 215.552h-39.296V256c0 12.384-9.6 22.4-21.504 22.4a21.952 21.952 0 0 1-21.504-22.4v-40.448H681.6a21.952 21.952 0 0 1-21.504-22.4c0-12.384 9.6-22.4 21.504-22.4h40.576V128c0-12.384 9.6-22.4 21.504-22.4a21.952 21.952 0 0 1 21.504 22.4v42.752h39.296a21.952 21.952 0 0 1 21.504 22.4c0 12.384-9.6 22.4-21.504 22.4"  horiz-adv-x="1024" />

    
    <glyph glyph-name="browse" unicode="&#59112;" d="M812.896 367.104C812.16 365.056 730.816 160 504.16 160c-225.44 0-305.248 198.24-309.696 209.376-3.2 6.4-2.944 21.28 1.376 29.92C196.736 401.344 287.776 608 504.16 608c215.296 0 304.384-199.776 309.248-210.752 3.296-6.176 3.552-21.344-0.512-30.144m58.112 57.888C866.72 435.072 762.24 672 504.16 672 246.08 672 141.344 434.56 137.92 426.432c-12.704-24.896-13.056-60.896-1.984-82.752 0.96-2.496 98.048-247.68 368.224-247.68 270.144 0 367.552 245.696 367.552 246.016 11.712 24.832 10.912 61.6-0.704 82.976M568.16 344.032a64.064 64.064 0 0 0-64-64.032c-35.296 0-64 28.704-64 64.032v71.904c0 35.328 28.704 64.064 64 64.064s64-28.736 64-64.064v-71.904z m-64 199.968c-70.592 0-128-57.44-128-128.064v-71.904a128.16 128.16 0 0 1 128-128.032c70.592 0 128 57.44 128 128.032v71.904a128.16 128.16 0 0 1-128 128.064z"  horiz-adv-x="1024" />

    
    <glyph glyph-name="brush" unicode="&#59113;" d="M766.88 460.736l-176.608 176.64 66.72 66.752 176.544-176.704-66.656-66.688zM401.44 95.04L224.64 271.808l0.256-0.064L545.024 592.096l176.64-176.64L401.376 95.04zM224 94.08v87.872l87.712-87.68-87.68-0.192z m655.04 478.528l-176.768 176.736A60.96 60.96 0 0 1 656.96 768a63.968 63.968 0 0 1-45.12-18.848L179.584 316.992a63.936 63.936 0 0 1-17.92-54.368c-0.768-2.688-1.696-5.312-1.696-8.256v-160.288c0-35.136 28.576-63.68 63.712-63.68h160.32c2.88 0 5.504 0.896 8.192 1.632 2.976-0.416 5.952-0.832 8.96-0.832 16.416 0 32.896 6.272 45.44 18.816l432.16 432.16a64 64 0 0 1 0.224 90.432z"  horiz-adv-x="1024" />

    
    <glyph glyph-name="businesscard" unicode="&#59114;" d="M736 544h-192a32 32 0 1 1 0-64h192a32 32 0 1 1 0 64M736 416h-128a32 32 0 1 1 0-64h128a32 32 0 1 1 0 64M736 288h-128a32 32 0 1 1 0-64h128a32 32 0 1 1 0 64M831.936 128L192 127.776 192.096 640 832 640.224l0.224-512.192-0.32-0.032m0 576H192.128A64.032 64.032 0 0 1 128 640.224v-512.448C128 92.64 156.768 64 192.096 64h639.84A64 64 0 0 1 896 127.776V640.224A64 64 0 0 1 831.936 704M480 273.856H288v20.736c20.64 8.32 63.84 23.04 96 23.04 31.744 0 74.656-14.496 96-23.072v-20.704zM355.36 454.4c0 14.368 11.232 25.6 25.504 25.6a25.6 25.6 0 0 0 25.504-25.6v-41.92a25.28 25.28 0 0 0-25.504-25.632 25.6 25.6 0 0 0-25.504 25.6V454.4z m157.088-104a483.2 483.2 0 0 1-53.664 18.88c7.168 12.864 11.584 27.456 11.584 43.2V454.4c0 49.408-40.16 89.6-89.504 89.6a89.664 89.664 0 0 1-89.504-89.6v-41.92c0-16.352 4.736-31.52 12.416-44.736-26.56-8-46.272-16.512-47.296-16.992A53.152 53.152 0 0 1 224 302.4v-55.904l1.696-4.992c6.464-18.976 24.032-31.68 43.712-31.68h229.184a45.44 45.44 0 0 1 45.28 42.016L544 302.4c0 20.576-13.28 40.416-31.552 47.968z"  horiz-adv-x="1024" />

    
    <glyph glyph-name="camera" unicode="&#59115;" d="M224 116.288l-0.128 439.712h146.976l45.856 106.048c1.856 4.256 10.496 9.952 15.136 9.952h192.288c4.768 0 13.248-5.6 15.136-9.92l45.856-106.08 146.88-0.32 0.032-439.68L224 116.32zM832.032 620h-104.832l-29.184 67.52C686.016 715.104 654.272 736 624.128 736h-192.288c-30.144 0-61.888-20.864-73.856-48.544l-29.184-67.456H223.968A64.224 64.224 0 0 1 160 555.68v-439.36c0-35.488 28.672-64.32 63.968-64.32h608.064A64.192 64.192 0 0 1 896 116.32v439.36c0 35.456-28.704 64.32-63.968 64.32zM528 256c-52.928 0-96 43.072-96 96s43.072 96 96 96 96-43.072 96-96-43.072-96-96-96m0 256c-88.224 0-160-71.776-160-160s71.776-160 160-160 160 71.776 160 160-71.776 160-160 160"  horiz-adv-x="1024" />

    
    <glyph glyph-name="collection" unicode="&#59116;" d="M695.104 349.632c-20.16-19.808-31.328-54.4-26.56-82.368l26.976-158.56-140.992 74.688c-25.056 13.248-61.408 13.28-86.464 0l-140.992-74.656 27.008 158.56c4.736 27.904-6.464 62.528-26.56 82.336l-114.56 112.512 158.08 23.136c27.936 4.096 57.312 25.6 69.792 51.04l70.464 143.872 70.464-143.872c12.512-25.472 41.856-46.944 69.824-51.04l158.08-23.136-114.56-112.512z m182.528 89.536c14.976 14.72 20.384 32.96 14.816 50.016-5.536 17.024-20.64 28.512-41.344 31.552l-190.272 27.872c-6.944 1.024-18.432 9.472-21.6 15.872l-85.088 173.76c-9.248 18.88-24.896 29.76-42.88 29.76-17.92 0-33.568-10.88-42.848-29.76l-85.056-173.76c-3.136-6.4-14.656-14.848-21.632-15.872l-190.272-27.84c-20.704-3.072-35.744-14.56-41.28-31.584-5.6-17.024-0.192-35.264 14.784-50.016L282.624 304c5.12-5.024 9.6-18.848 8.352-25.92l-32.512-190.944c-3.52-20.8 2.784-38.816 17.344-49.344 7.52-5.44 16.256-8.16 25.472-8.16 8.576 0 17.632 2.368 26.56 7.104l170.176 90.144c6.08 3.2 20.48 3.2 26.56 0l170.144-90.144c18.496-9.824 37.504-9.408 52.032 1.056 14.56 10.56 20.896 28.512 17.376 49.312l-32.512 190.976c-1.216 7.072 3.232 20.896 8.32 25.92l137.696 135.2z"  horiz-adv-x="1024" />

    
    <glyph glyph-name="coupons" unicode="&#59117;" d="M832 227.2l-0.096-99.2L192 127.808V227.2c72.96 14.848 128 79.52 128 156.768a160.288 160.288 0 0 1-128 156.8L192.128 640 832 640.224V540.8a160.32 160.32 0 0 1-128-156.8 160.32 160.32 0 0 1 128-156.8m32 252.8h32V640.224A64 64 0 0 1 831.904 704H192.096a64 64 0 0 1-64.128-63.776V480h32c52.96 0 96-43.04 96-96 0-52.928-43.04-96-96-96H128v-160.192A64 64 0 0 1 192.064 64h639.84A64 64 0 0 1 896 127.808V288h-32c-52.928 0-96 43.072-96 96 0 52.96 43.072 96 96 96M608 371.2a22.4 22.4 0 1 1 0 44.8h-64.384c0.064 0.096 0.16 0.096 0.224 0.16l64 64a22.4 22.4 0 1 1-31.68 31.68l-64-64-0.16-0.224-0.16 0.256-64 64a22.4 22.4 0 0 1-31.68-31.712l64-64c0.064-0.064 0.16-0.064 0.224-0.16H416a22.4 22.4 0 1 1 0-44.8h73.6V320H416a22.4 22.4 0 1 1 0-44.8h73.6v-19.2a22.4 22.4 0 0 1 44.8 0v19.2H608a22.4 22.4 0 1 1 0 44.8h-73.6v51.2H608z"  horiz-adv-x="1024" />

    
    <glyph glyph-name="customerservice" unicode="&#59121;" d="M799.68 224H736v192h63.68l0.32 0.096L799.68 224zM288 223.968l-64-0.064L224.32 416H288V223.968zM799.68 480H736v64.192C736 667.584 635.52 768 512 768s-224-100.416-224-223.808V480H224.32C188.864 480 160 451.328 160 416.096v-192.192C160 188.672 188.864 160 224.32 160h94.848c0.288 0 0.544-0.16 0.832-0.16 0.32 0 0.544 0.16 0.864 0.16H352V544.192A160.064 160.064 0 0 0 512 704c88.224 0 160-71.68 160-159.808V159.84c0-34.144-8.352-58.24-25.536-73.664-16.544-14.88-42.912-22.944-78.144-24.384A63.68 63.68 0 0 1 512 96a64 64 0 0 1 0-128c22.816 0 42.72 12.032 54.048 29.984 53.312 1.44 94.208 14.56 123.2 40.576 31.04 27.872 46.72 68.672 46.72 121.28V160h63.744A64.16 64.16 0 0 1 864 223.904v192.192A64.16 64.16 0 0 1 799.68 480z"  horiz-adv-x="1024" />

    
    <glyph glyph-name="group" unicode="&#59135;" d="M864 51.232a2.464 2.464 0 0 0-1.504-0.704L288 51.904V169.92c0 5.824 6.016 14.944 12.096 17.44C301.664 188 456.992 256 576 256c118.752 0 274.336-68 276.864-69.088 5.216-2.08 11.136-11.168 11.136-17.024v-118.656zM480.48 455.2v104.736A112.064 112.064 0 0 0 592.256 672 112 112 0 0 0 704 559.936v-104.736a112 112 0 0 0-111.744-112.064 112 112 0 0 0-111.776 112.064z m397.248-209.28c-4.992 2.176-92.64 40.384-191.008 61.056A176 176 0 0 1 768 455.2v104.736C768 657.024 689.152 736 592.256 736c-96.928 0-175.776-78.976-175.776-176.064v-104.736c0-59.136 29.344-111.456 74.112-143.36-108.16-18.72-210.752-63.488-215.552-65.6C245.952 234.24 224 201.44 224 169.856v-126.4h0.544a65.536 65.536 0 0 1 64.96-56.96h572.992c28.672 0 54.304 18.752 63.808 46.72l1.696 4.96V169.92c0 31.808-22.016 64.672-50.272 76zM360.384 322.56c1.024 0 1.952-0.288 2.976-0.288a32 32 0 1 1 0 64A68.736 68.736 0 0 0 294.72 455.04v84.256C294.72 577.152 325.504 608 363.36 608a32 32 0 0 1 0 64 132.832 132.832 0 0 1-132.64-132.736v-84.256c0-32.736 12.352-62.368 32.064-85.536-62.72-19.296-117.536-49.696-127.584-55.456C112.352 303.2 96 277.312 96 251.552v-91.904a32 32 0 1 1 64 0v91.744a11.424 11.424 0 0 0 2.336 4.672 28.992 28.992 0 0 1 3.584 1.824c30.432 17.728 123.84 63.712 189.76 63.712 1.632 0 3.104 0.704 4.704 0.96"  horiz-adv-x="1024" />

    
    <glyph glyph-name="homepage" unicode="&#59138;" d="M768 105.44l-128 0.032v118.944a128.224 128.224 0 0 1-128 128.192c-70.592 0-128-57.504-128-128.192v-118.88l-128 0.032V531.008l255.68 167.52L768 530.624v-425.184z m-192 0.032l-128 0.032v118.912c0 35.392 28.704 64.192 64 64.192s64-28.8 64-64.192v-118.944z m304.896 427.68L800 586.144V688.832a32 32 0 1 1-64 0v-60.768l-206.464 135.296A31.296 31.296 0 0 1 511.424 768a31.168 31.168 0 0 1-17.6-4.64l-351.36-230.208a32 32 0 0 1 35.072-53.536L192 489.088v-393.056c0-30.08 27.2-54.592 60.576-54.592h518.848c33.408 0 60.576 24.512 60.576 54.592v392.64l13.856-9.056a31.968 31.968 0 0 1 35.04 53.536z"  horiz-adv-x="1024" />

    
    <glyph glyph-name="lock_fill" unicode="&#59147;" d="M378.08810667 584.97934222A141.84903111 141.84903111 0 0 0 519.64586667 726.75555556a141.88544 141.88544 0 0 0 141.63057778-141.77621334V471.89333334h-283.18833778V584.97934222zM548.40888889 144.21333333999996a36.40888889 36.40888889 0 0 0-72.81777778 0v145.63555555a36.40888889 36.40888889 0 0 0 72.81777778 0v-145.63555555z m291.56238222 327.68H734.09422222V584.97934222A214.73962667 214.73962667 0 0 1 519.64586667 799.57333334c-118.21966222 0-214.37553778-96.26510222-214.37553778-214.59399112V471.89333334h-121.2416A72.81777778 72.81777778 0 0 1 111.50222222 398.96632889v-363.90684444A72.81777778 72.81777778 0 0 1 184.02872889-37.83111111000005h655.94254222A72.81777778 72.81777778 0 0 1 912.49777778 35.059484450000014v363.90684444A72.81777778 72.81777778 0 0 1 839.97127111 471.89333334z"  horiz-adv-x="1024" />

    
    <glyph glyph-name="lock" unicode="&#59145;" d="M184.32 35.059484450000014v363.90684444L184.02872889 399.07555556 839.68 398.96632889 839.97127111 34.98666666999998 184.32 35.059484450000014z m193.76810667 549.91985777A141.84903111 141.84903111 0 0 0 519.64586667 726.75555556a141.88544 141.88544 0 0 0 141.63057778-141.77621334V471.89333334h-283.18833778V584.97934222zM839.97127111 471.89333334H734.09422222V584.97934222A214.73962667 214.73962667 0 0 1 519.64586667 799.57333334c-118.21966222 0-214.37553778-96.26510222-214.37553778-214.59399112V471.89333334h-121.2416A72.81777778 72.81777778 0 0 1 111.50222222 398.96632889v-363.90684444A72.81777778 72.81777778 0 0 1 184.02872889-37.83111111000005h655.94254222A72.81777778 72.81777778 0 0 1 912.49777778 35.059484450000014v363.90684444A72.81777778 72.81777778 0 0 1 839.97127111 471.89333334zM512 326.25777777999997a36.40888889 36.40888889 0 0 1-36.40888889-36.40888889v-145.63555555a36.40888889 36.40888889 0 0 1 72.81777778 0v145.63555555a36.40888889 36.40888889 0 0 1-36.40888889 36.40888889"  horiz-adv-x="1024" />

    
    <glyph glyph-name="mail" unicode="&#59146;" d="M831.936 128L192 127.808V517.696l302.816-192.704a32.096 32.096 0 0 1 34.4 0L832 517.696 831.936 128zM192 640.224L192.096 640 832 640.224v-46.656l-320-203.616L192 593.568V640.224zM831.936 704H192.096A64 64 0 0 1 128 640.224v-512.416C128 92.64 156.768 64 192.096 64h639.84A64 64 0 0 1 896 127.808V640.224A64 64 0 0 1 831.936 704z"  horiz-adv-x="1024" />

    
    <glyph glyph-name="message" unicode="&#59148;" d="M800 192v-17.888h-184.128c-29.664 0-61.184-18.848-74.912-44.832L512 74.56l-28.96 54.752c-13.728 25.952-45.248 44.8-74.912 44.8H224V640h576v-448z m5.312 512H218.688C186.336 704 160 676.512 160 642.752v-471.392c0-33.76 26.4-61.248 58.816-61.248h189.312c5.92 0 15.712-5.728 18.368-10.752l38.048-71.968 2.912-4.544c11.168-14.528 27.392-22.848 44.544-22.848 17.152 0 33.376 8.32 44.544 22.848l40.96 76.512c2.464 4.608 11.968 10.752 18.368 10.752h189.472c32.352 0 58.656 27.488 58.656 61.248V642.752C864 676.512 837.664 704 805.312 704zM336 448c-12.352 0-23.488-4.8-32-12.448A47.68 47.68 0 0 1 288 400c0-14.176 6.24-26.752 16-35.552a47.68 47.68 0 0 1 32-12.448 48 48 0 0 1 0 96M688 448a48 48 0 0 1 0-96c12.352 0 23.488 4.8 32 12.448 9.76 8.8 16 21.376 16 35.552a47.68 47.68 0 0 1-16 35.552 47.68 47.68 0 0 1-32 12.448M512 448c-12.352 0-23.488-4.8-32-12.448a47.68 47.68 0 0 1-16-35.552c0-14.176 6.24-26.752 16-35.552A47.68 47.68 0 0 1 512 352c12.352 0 23.488 4.8 32 12.448 9.76 8.8 16 21.376 16 35.552a47.68 47.68 0 0 1-16 35.552A47.68 47.68 0 0 1 512 448"  horiz-adv-x="1024" />

    
    <glyph glyph-name="more" unicode="&#59152;" d="M288 439.136A63.264 63.264 0 0 1 256 448a64 64 0 1 1 0-128c11.712 0 22.56 3.392 32 8.896 19.04 11.072 32 31.488 32 55.104 0 23.648-12.96 44.064-32 55.136M544 439.136A63.264 63.264 0 0 1 512 448c-11.712 0-22.56-3.36-32-8.864-19.04-11.072-32-31.488-32-55.136 0-23.616 12.96-44.032 32-55.104 9.44-5.504 20.288-8.896 32-8.896s22.56 3.392 32 8.896c19.04 11.072 32 31.488 32 55.104 0 23.648-12.96 44.064-32 55.136M768 448c-11.712 0-22.56-3.392-32-8.864-19.04-11.104-32-31.52-32-55.136 0-23.616 12.96-44.032 32-55.136 9.44-5.472 20.288-8.864 32-8.864a64 64 0 1 1 0 128"  horiz-adv-x="1024" />

    
    <glyph glyph-name="people" unicode="&#59157;" d="M800 60.672l-574.496-0.032A2.464 2.464 0 0 0 224 61.344v118.656c0 5.856 5.92 14.944 12.096 17.44 1.056 0.448 69.408 30.272 149.952 50.464 41.248 10.336 85.632 18.208 125.952 18.208 36.64 0 76.736-6.496 114.816-15.456a1061.6 1061.6 0 0 0 161.856-53.536c5.312-2.176 11.328-11.296 11.328-17.12v-119.36zM400.992 569.12A103.136 103.136 0 0 0 504.16 672a103.168 103.168 0 0 0 103.2-102.88v-123.104a103.168 103.168 0 0 0-103.2-102.88 103.136 103.136 0 0 0-103.168 102.88v123.104zM813.728 256c-3.904 1.728-58.56 25.6-129.312 45.76a883.616 883.616 0 0 1-72.608 17.6c36.096 30.592 59.552 75.68 59.552 126.656v123.104A167.168 167.168 0 0 1 504.192 736c-92.16 0-167.2-74.72-167.2-166.88v-123.104c0-52.352 24.768-98.624 62.72-129.28-25.472-5.376-50.112-11.872-72.8-18.656a1098.656 1098.656 0 0 1-115.648-41.664C182.016 244.672 160 211.808 160 180v-131.68l1.696-4.992c9.504-27.936 35.136-46.72 63.808-46.72h572.992a65.536 65.536 0 0 1 64.96 56.96l0.544 126.4c0 31.616-21.952 64.416-50.272 76.032z"  horiz-adv-x="1024" />

    
    <glyph glyph-name="praise" unicode="&#59162;" d="M819.36 456.416l-75.904-354.176c-0.576-2.688-5.088-6.24-7.296-6.24L352 96.16V480h2.88v1.056A176.224 176.224 0 0 1 512 656V672a32.032 32.032 0 0 0 64 0h2.048c6.336-32.8 11.968-106.496-23.872-139.904A32 32 0 0 1 576 476.672c4.64 0 9.152 1.344 13.44 3.328h210.24c7.424 0 13.376-2.336 16.832-6.592 3.296-4.096 4.32-10.144 2.848-16.992zM192.192 480H288v-383.808H192L192.192 480z m674.08 33.664c-15.584 19.296-39.872 30.336-66.592 30.336h-164.992c23.168 67.2 5.376 145.024 4.352 149.312a30.944 30.944 0 0 1-4.928 10.656 95.808 95.808 0 0 1-90.112 64 95.84 95.84 0 0 1-95.456-90.688H448V656c0-61.76-50.24-112-112-112H192.192C156.8 544 128 515.2 128 479.776v-383.552C128 60.8 156.64 32 191.84 32h544.32c32.352 0 63.04 24.96 69.888 56.8l75.904 354.208c5.504 25.76-0.192 51.488-15.68 70.656z"  horiz-adv-x="1024" />

    
    <glyph glyph-name="remind" unicode="&#59167;" d="M612.576 177.44H244.896c20.96 44.448 49.184 112.64 49.184 157.984v160.64C294.08 610.784 391.84 704 512 704c120.16 0 217.92-93.248 217.92-207.904v-158.336c0-45.952 28.448-115.36 49.44-160.32h-166.784z m-100.576-96c-24.704 0-46.08 12.96-57.728 32h115.456c-11.648-19.04-33.024-32-57.728-32z m346.144 81.056l2.24 1.088c-17.664 33.12-63.424 128.96-63.424 174.176v158.336C796.96 646.016 669.12 768 512 768c-157.12 0-284.96-121.984-284.96-271.904v-160.672c0-39.52-38.848-126.272-63.328-171.68l2.24-1.12a30.24 30.24 0 0 1-5.952-17.184c0-17.664 15.04-32 33.536-32h189.12c15.008-55.04 67.072-96 129.344-96 62.272 0 114.336 40.96 129.344 96h189.12c18.528 0 33.536 14.336 33.536 32a30.4 30.4 0 0 1-5.856 17.056z"  horiz-adv-x="1024" />

    
    <glyph glyph-name="setup" unicode="&#59176;" d="M825.312 329.184a127.04 127.04 0 0 1-91.616-62.624 127.232 127.232 0 0 1-8.448-110.56 318.976 318.976 0 0 0-113.216-65.472A127.072 127.072 0 0 1 512 138.56a127.2 127.2 0 0 1-100.064-48 319.232 319.232 0 0 0-113.216 65.44 127.232 127.232 0 0 1-8.416 110.56 127.04 127.04 0 0 1-91.648 62.624 323.232 323.232 0 0 0 0 130.784 127.104 127.104 0 0 1 91.648 62.592 127.296 127.296 0 0 1 8.416 110.592 318.976 318.976 0 0 0 113.216 65.472A127.232 127.232 0 0 1 512 650.56c39.712 0 76.064 17.92 100.032 48.064a318.72 318.72 0 0 0 113.216-65.472 127.328 127.328 0 0 1 8.448-110.592 127.104 127.104 0 0 1 91.616-62.592 321.536 321.536 0 0 0 0-130.784m56.16 170.304a31.776 31.776 0 0 1-32.832 23.2 63.584 63.584 0 0 0-59.52 31.872 63.744 63.744 0 0 0 2.112 67.52 32 32 0 0 1-3.68 39.936 383.392 383.392 0 0 1-181.696 104.992 31.968 31.968 0 0 1-36.48-16.832A63.68 63.68 0 0 0 512 714.56a63.68 63.68 0 0 0-57.376 35.616 32 32 0 0 1-36.48 16.832 383.264 383.264 0 0 1-181.696-104.96 32 32 0 0 1-3.712-40 63.68 63.68 0 0 0 2.112-67.488 63.68 63.68 0 0 0-59.52-31.872 31.52 31.52 0 0 1-32.8-23.2A383.136 383.136 0 0 1 128 394.56c0-35.648 4.864-70.944 14.528-104.896a31.904 31.904 0 0 1 32.8-23.2 64.032 64.032 0 0 0 59.52-31.904c12.256-21.184 11.456-47.04-2.112-67.456a32 32 0 0 1 3.712-39.968 382.88 382.88 0 0 1 181.696-104.96 31.936 31.936 0 0 1 36.48 16.8A63.648 63.648 0 0 0 512 74.56c24.512 0 46.496-13.632 57.376-35.584a32 32 0 0 1 36.48-16.832 383.04 383.04 0 0 1 181.696 104.992 32 32 0 0 1 3.68 40 63.68 63.68 0 0 0-2.112 67.424 63.136 63.136 0 0 0 59.52 31.904c15.04-0.896 28.704 8.736 32.832 23.2A384.64 384.64 0 0 1 896 394.56c0 35.648-4.896 70.944-14.528 104.96M512 298.56c-52.928 0-96 43.104-96 96 0 52.96 43.072 96 96 96s96-43.04 96-96c0-52.896-43.072-96-96-96m0 256c-88.224 0-160-71.744-160-160 0-88.224 71.776-160 160-160s160 71.808 160 160c0 88.256-71.776 160-160 160"  horiz-adv-x="1024" />

    
    <glyph glyph-name="link" unicode="&#59177;" d="M736 96c-35.296 0-64 28.704-64 64s28.704 64 64 64 64-28.704 64-64-28.704-64-64-64M288 320c-35.296 0-64 28.704-64 64s28.704 64 64 64 64-28.704 64-64-28.704-64-64-64M736 672c35.296 0 64-28.704 64-64s-28.704-64-64-64-64 28.704-64 64 28.704 64 64 64m0-384a127.776 127.776 0 0 1-115.232-73.28l-204.896 117.056a30.848 30.848 0 0 1-9.696 3.2A127.68 127.68 0 0 1 416 384c0 6.656-0.992 13.088-1.984 19.456 0.608 0.32 1.28 0.416 1.856 0.768l219.616 125.472A127.328 127.328 0 0 1 736 480c70.592 0 128 57.408 128 128s-57.408 128-128 128-128-57.408-128-128c0-6.72 0.992-13.152 1.984-19.616-0.608-0.288-1.28-0.256-1.856-0.608l-219.616-125.472A127.328 127.328 0 0 1 288 512c-70.592 0-128-57.408-128-128s57.408-128 128-128a126.912 126.912 0 0 1 84.544 32.64 31.232 31.232 0 0 1 11.584-12.416l224-128c0.352-0.224 0.736-0.256 1.12-0.448C615.488 83.00800000000004 669.6 32 736 32c70.592 0 128 57.408 128 128s-57.408 128-128 128"  horiz-adv-x="1024" />

    
    <glyph glyph-name="success" unicode="&#59181;" d="M512 19.91111110999998c-200.75861333 0-364.08888889 163.33027555-364.08888889 364.08888889S311.24138667 748.08888889 512 748.08888889s364.08888889-163.33027555 364.08888889-364.08888889-163.33027555-364.08888889-364.08888889-364.08888889m0 800.99555556C271.08238222 820.90666667 75.09333333 624.91761778 75.09333333 384s195.98904889-436.90666667 436.90666667-436.90666667 436.90666667 195.98904889 436.90666667 436.90666667S752.91761778 820.90666667 512 820.90666667M633.82414222 478.33543111l-172.65095111-188.74368-70.66965333 79.18933334a36.40888889 36.40888889 0 1 1-54.32206223-48.49664l97.50300445-109.22666667a36.40888889 36.40888889 0 0 1 26.94257778-12.16056889h0.21845333c10.19448889 0 19.95207111 4.29624889 26.86976 11.83288889l199.84839111 218.45333333a36.40888889 36.40888889 0 0 1-53.73952 49.152"  horiz-adv-x="1024" />

    
    <glyph glyph-name="systemprompt" unicode="&#59184;" d="M797.05732741 650.62244503a36.73899615 36.73899615 0 0 1-51.10837096-11.34015525 38.13709748 38.13709748 0 0 1 10.79644918-52.11811082c4.00012325-2.71853037 99.30403082-68.66230992 99.30403082-232.62852741 0-164.39341511-91.42029275-230.37603082-95.03205453-232.8615443a38.05942518 38.05942518 0 0 1-10.3304154-52.4288 37.01084918 37.01084918 0 0 1 51.57440473-10.4080877c5.24288 3.49525333 128.19812503 89.0512877 128.19812505 295.73726815 0 206.99666963-127.926272 292.51386785-133.40216889 296.04795733M681.24793363 539.70640592a36.7778323 36.7778323 0 0 1-49.05005511-17.70928356 38.29244208 38.29244208 0 0 1 16.97139673-50.37048414c2.36900503-1.24275675 58.09887763-30.60288475 58.09887764-114.33362014 0-89.40081303-52.11811082-119.03279408-53.82690134-120.00369778a38.02058903 38.02058903 0 0 1-16.66070755-50.68117334 37.20502992 37.20502992 0 0 1 49.94328652-16.9325606c3.88361482 2.0194797 94.91554608 49.82677808 94.91554607 187.57859556 0 133.01380741-96.31364741 180.51041659-100.39144296 182.49106016M512 84.119552l-77.6722963 70.60411733-127.14954903 115.61521303a38.91382045 38.91382045 0 0 1-26.17556385 10.09739852L162.47466667 280.39744473999997l-0.38836149 249.40574341h156.04364327c11.96153363-2.21366045 24.23375645 1.24275675 33.28257896 9.437184l82.87634014 75.38096355 77.6722963 70.60411733v-601.10590103z m46.137344 705.38095881c-9.5148563 4.194304-34.603008 11.22364682-62.13783703-13.82566873L434.3277037 719.59544415l-123.34360652-112.11995971H162.08630518A77.594624 77.594624 0 0 1 84.80237037 529.8420243v-249.44457956c0-42.79743525 34.6806803-77.63346015 77.28393481-77.63346016h103.92553245L434.3277037 49.74956087999999l61.74947555-56.11823407c15.57329541-14.13635792 30.3310317-18.09764503 41.94304-18.09764503 8.97115022 0 16.11700148 2.36900503 20.2336332 4.194304 9.47602015 4.194304 31.45728 17.94230045 31.45728 55.10849422V734.54736118c0 25.67069392-11.80618903 46.17618015-31.57378845 54.95314963z"  horiz-adv-x="1024" />

    
    <glyph glyph-name="time" unicode="&#59189;" d="M512 64c-176.448 0-320 143.552-320 320S335.552 704 512 704s320-143.552 320-320-143.552-320-320-320m0 704C300.256 768 128 595.744 128 384s172.256-384 384-384 384 172.256 384 384S723.744 768 512 768M544 390.144V576a32 32 0 0 1-64 0v-199.104c0-8.48 3.36-16.64 9.376-22.624l107.296-107.296a31.904 31.904 0 0 1 45.248 0 32 32 0 0 1 0 45.248L544 390.144z"  horiz-adv-x="1024" />

    
    <glyph glyph-name="jingxuan" unicode="&#59520;" d="M753.92 768h1.664c-0.491 0-0.853-0.021-1.216 0.128 0.384-0.149 0.725-0.128 1.216-0.128h-1.685v0h-503.317l-142.080-237.653 344.576-448.128-133.355 429.781h-197.12l-14.080 18.347 14.549 24.32h183.403l-62.677 201.984 6.784 11.349h34.368l59.755-192.576 127.189 192.576h79.765l123.371-186.795 57.963 186.795h20.907l16.192-24.405-58.624-188.928h183.851l19.563-29.525-10.197-13.141h-206.443l-137.941-444.523-48.107-62.080v0l402.709 519.744-161.003 242.859zM215.509 792.512c5.973 10.027 20.395 18.155 32.085 18.155h507.947c11.733 0 26.539-7.979 33.024-17.771l166.997-251.925c6.485-9.813 6.016-25.173-1.365-34.709l-416.043-537.003c-14.421-18.603-37.824-18.475-52.203 0.235l-415.808 540.757c-7.253 9.429-8.256 25.237-2.283 35.221l147.669 247.040zM361.045 522.752l147.904-476.651 149.696 482.432-146.859 222.421-150.72-228.203z"  horiz-adv-x="1024" />

    
    <glyph glyph-name="liebiao1" unicode="&#59535;" d="M149.461333 320h213.077334c11.861333 0 21.461333-9.6 21.461333-21.461333v-213.077334C384 73.6 374.4 64 362.538667 64H149.461333C137.6 64 128 73.6 128 85.461333v213.077334C128 310.4 137.6 320 149.461333 320zM85.333333 85.461333A64.106667 64.106667 0 0 1 149.461333 21.333333h213.077334A64.106667 64.106667 0 0 1 426.666667 85.461333v213.077334A64.106667 64.106667 0 0 1 362.538667 362.666667H149.461333A64.106667 64.106667 0 0 1 85.333333 298.538667v-213.077334z m0 384A64.106667 64.106667 0 0 1 149.461333 405.333333h213.077334A64.106667 64.106667 0 0 1 426.666667 469.461333v213.077334A64.106667 64.106667 0 0 1 362.538667 746.666667H149.461333A64.106667 64.106667 0 0 1 85.333333 682.538667v-213.077334zM149.461333 704h213.077334C374.4 704 384 694.4 384 682.538667v-213.077334C384 457.6 374.4 448 362.538667 448H149.461333C137.6 448 128 457.6 128 469.461333v213.077334C128 694.4 137.6 704 149.461333 704z m768.042667-64a21.333333 21.333333 0 0 1 0 42.666667h-426.666667a21.333333 21.333333 0 1 1 0-42.666667h426.666667z m0-384a21.333333 21.333333 0 0 1 0 42.666667h-426.666667a21.333333 21.333333 0 1 1 0-42.666667h426.666667z m0 213.333333a21.333333 21.333333 0 0 1 0 42.666667h-426.666667a21.333333 21.333333 0 1 1 0-42.666667h426.666667z m0-384a21.333333 21.333333 0 0 1 0 42.666667h-426.666667a21.333333 21.333333 0 1 1 0-42.666667h426.666667z"  horiz-adv-x="1024" />

    
    <glyph glyph-name="wifi" unicode="&#59540;" d="M604.437333 135.104a92.437333 92.437333 0 1 1-184.874666 0 92.437333 92.437333 0 0 1 184.874666 0z m-142.208 0a49.770667 49.770667 0 1 0 99.541334 0 49.770667 49.770667 0 0 0-99.541334 0z m49.770667 234.666667c-63.061333 0-122.24-25.024-165.930667-68.714667a21.333333 21.333333 0 1 1 30.165334-30.186667A191.296 191.296 0 0 0 512 327.104c51.626667 0 99.968-20.437333 135.765333-56.234667a21.333333 21.333333 0 0 1 30.165334 30.186667A233.962667 233.962667 0 0 1 512 369.770667z m0 177.792c-110.848 0-214.826667-43.968-291.626667-120.810667a21.333333 21.333333 0 1 1 30.144-30.165333A368.490667 368.490667 0 0 0 512 504.896c99.413333 0 192.554667-39.402667 261.482667-108.309333a21.333333 21.333333 0 0 1 30.165333 30.165333A411.136 411.136 0 0 1 512 547.562667zM512 725.333333a588.330667 588.330667 0 0 1-417.344-172.864 21.333333 21.333333 0 1 1 30.165333-30.186666A545.664 545.664 0 0 0 512 682.666667c147.2 0 285.141333-58.346667 387.2-160.384a21.333333 21.333333 0 1 1 30.144 30.186666A588.330667 588.330667 0 0 1 512 725.333333z"  horiz-adv-x="1024" />

    
    <glyph glyph-name="dingdanyichenggong" unicode="&#59545;" d="M336.213 376.533l112.384-131.115 239.723 259.712c3.919 4.318 9.553 7.019 15.818 7.019 11.782 0 21.333-9.551 21.333-21.333 0-5.66-2.204-10.805-5.801-14.624l-255.99-277.323c-3.91-4.229-9.487-6.868-15.68-6.868-6.464 0-12.257 2.875-16.169 7.416l-128.023 149.361c-3.287 3.734-5.292 8.665-5.292 14.064 0 11.782 9.551 21.333 21.333 21.333 6.546 0 12.403-2.948 16.317-7.589zM298.667 768.064c0 23.531 19.157 42.603 42.453 42.603h341.76c23.424 0 42.453-19.157 42.453-42.624v-42.752c-0.012-23.476-18.991-42.515-42.443-42.624l-341.77-0c-23.424 0-42.453 19.157-42.453 42.624v42.752zM341.333 725.333h341.333v42.667h-341.333v-42.667zM236.16 768v-42.667s-65.493-0.021-65.493-0.107v-725.227s682.667-0.043 682.667 0.107c0 0 0 725.227-0.128 725.227h-63.296v42.667h63.296c23.637 0 42.795-19.072 42.795-42.773v-725.12c0-23.616-18.987-42.773-42.667-42.773h-682.667c-0-0-0-0-0-0-23.564 0-42.667 19.103-42.667 42.667 0 0.038 0 0.075 0 0.112l-0 725.114c0 23.616 19.115 42.773 42.752 42.773h65.408z"  horiz-adv-x="1024" />

    
    <glyph glyph-name="yijianfankui" unicode="&#59553;" d="M170.666667 0v-0.021333c-0.426667-0.021333 0-0.426667 0-2.069334C170.666667-0.426667 170.24 0 170.666667 0z m682.666666 607.488V0H170.666667V725.333333h554.666666V768H170.474667C147.178667 768 128 749.824 128 727.424v-729.514667C128-24.448 147.114667-42.666667 170.666667-42.666667h682.666666c23.68 0 42.666667 18.218667 42.666667 40.661334v609.493333h-42.666667zM618.474667 376.298667a21.312 21.312 0 0 1 29.226666 7.530666l245.333334 416a21.354667 21.354667 0 0 1-36.757334 21.674667l-245.333333-416a21.333333 21.333333 0 0 1 7.530667-29.226667zM298.666667 511.978667h298.666666v42.666666H298.666667v-42.666666z m0-128h170.666666v42.666666h-170.666666v-42.666666z"  horiz-adv-x="1024" />

    
    <glyph glyph-name="chaxunchufadaoda" unicode="&#59594;" d="M512-128c282.752 0 512 229.248 512 512S794.752 896 512 896 0 666.752 0 384s229.248-512 512-512z m0 85.333333C276.352-42.666667 85.333333 148.352 85.333333 384S276.352 810.666667 512 810.666667s426.666667-191.018667 426.666667-426.666667-191.018667-426.666667-426.666667-426.666667zM291.541333 512c-23.552 0-39.594667-19.114667-39.594666-42.666667s16.042667-42.666667 39.594666-42.666666h470.272c37.845333 0 56.96 58.368 30.464 85.333333l-149.546666 156.16a42.666667 42.666667 0 0 1-60.885334-59.818667L660.096 512H291.541333z m470.272-257.706667a42.666667 42.666667 0 1 1 0 85.333334H291.541333c-37.802667 0-56.917333-45.653333-30.421333-72.618667l149.546667-152.192a42.666667 42.666667 0 0 1 60.842666 59.776L393.301333 254.293333h368.512z"  horiz-adv-x="1024" />

    
    <glyph glyph-name="search" unicode="&#59201;" d="M192 416a256 256 0 1 0 512 0 256 256 0 0 0-512 0m631.776-362.496l-143.2 143.168A318.464 318.464 0 0 1 768 416c0 176.736-143.264 320-320 320S128 592.736 128 416s143.264-320 320-320a318.016 318.016 0 0 1 184.16 58.592l146.336-146.368c12.512-12.48 32.768-12.48 45.28 0 12.48 12.512 12.48 32.768 0 45.28"  horiz-adv-x="1024" />

    
    <glyph glyph-name="share" unicode="&#58917;" d="M972.8 346.0864v-294.7584A128.0768 128.0768 0 0 0 844.8-76.79999999999995H179.2a128 128 0 0 0-128 128V716.8c0 70.7328 57.1904 128 127.872 128h202.3168a25.6 25.6 0 0 1 0 51.2H179.072A179.072 179.072 0 0 1 0 716.8v-665.6a179.2 179.2 0 0 1 179.2-179.2h665.6c98.944 0 179.2 80.2816 179.2 179.328V346.0864a25.6 25.6 0 0 1-51.2 0zM960 768c-353.4592 0-640-286.5408-640-640a25.6 25.6 0 0 1 51.2 0c0 325.1968 263.6032 588.8 588.8 588.8a25.6 25.6 0 0 1 0 51.2zM720.1024 833.8432l256-102.4a25.6 25.6 0 0 1 18.9952 47.5136l-256 102.4a25.6 25.6 0 0 1-18.9952-47.5136zM808.8064 547.5328l194.6368 189.312a25.6 25.6 0 1 1-35.6864 36.7104L773.12 584.2432a25.6 25.6 0 1 1 35.6864-36.7104z"  horiz-adv-x="1024" />

    
    <glyph glyph-name="back" unicode="&#58920;" d="M710.153924 887.019603L266.007127 435.307476a81.118646 81.118646 0 0 1 0.861532-114.476097l446.192936-441.050666a26.922883 26.922883 0 0 1 37.853573 38.284339L304.722232 359.115718a27.27288 27.27288 0 0 0-0.323074 38.445877L748.545955 849.273722A26.922883 26.922883 0 1 1 710.180847 886.99268z"  horiz-adv-x="1024" />

    
    <glyph glyph-name="cross" unicode="&#58921;" d="M512 439.689846L94.247385 857.442462a39.542154 39.542154 0 0 1-55.689847 0 39.266462 39.266462 0 0 1 0-55.689847L456.310154 384 38.557538-33.75261499999999a39.542154 39.542154 0 0 1 0-55.689847 39.266462 39.266462 0 0 1 55.689847 0L512 328.310154l417.752615-417.752616c15.163077-15.163077 40.290462-15.36 55.689847 0a39.266462 39.266462 0 0 1 0 55.689847L567.689846 384 985.442462 801.752615a39.542154 39.542154 0 0 1 0 55.689847 39.266462 39.266462 0 0 1-55.689847 0L512 439.689846z"  horiz-adv-x="1024" />

    
    <glyph glyph-name="cs" unicode="&#58922;" d="M55.351351 342.59718899999996v-110.924108a83.027027 83.027027 0 0 1 166.054054 0v110.924108a83.027027 83.027027 0 0 1-166.054054 0z m763.101406-211.552865A137.852541 137.852541 0 0 0 774.918919 231.67308100000002v110.924108A138.378378 138.378378 0 0 0 912.328649 480.864865C898.131027 681.928649 730.499459 840.648649 525.837838 840.648649 321.148541 840.648649 153.544649 681.928649 139.347027 480.864865A138.461405 138.461405 0 0 0 276.756757 342.59718899999996v-110.924108a138.378378 138.378378 0 0 0-276.756757 0v110.924108a138.378378 138.378378 0 0 0 83.303784 126.865297C91.883243 706.476973 286.72 896 525.837838 896s433.954595-189.523027 442.534054-426.537514A138.461405 138.461405 0 0 0 1051.675676 342.59718899999996v-110.924108a138.378378 138.378378 0 0 0-184.790487-130.269405 470.763243 470.763243 0 0 0-188.858811-121.21946A96.809514 96.809514 0 0 0 580.912432-114.16216199999997h-82.528864c-53.690811 0-97.113946 43.174054-97.113946 96.864865 0 53.607784 43.284757 96.864865 97.141621 96.864865h82.473514c34.954378 0 65.536-18.265946 82.639567-45.803244a415.273514 415.273514 0 0 1 154.900757 97.28zM830.27027 342.59718899999996v-110.924108a83.027027 83.027027 0 0 1 166.054054 0v110.924108a83.027027 83.027027 0 0 1-166.054054 0zM498.438919-58.810810999999944h82.473513c23.302919 0 41.79027 18.487351 41.790271 41.513514 0 23.053838-18.570378 41.513514-41.790271 41.513513h-82.473513c-23.302919 0-41.79027-18.487351-41.79027-41.513513 0-23.053838 18.570378-41.513514 41.79027-41.513514z"  horiz-adv-x="1051" />

    
    <glyph glyph-name="od" unicode="&#58923;" d="M768 167.38461500000005v7.876923 11.815385c-11.815385 110.276923-122.092308 196.923077-256 196.923077s-244.184615-86.646154-256-192.984615v-23.63077c0-43.323077 35.446154-78.769231 78.769231-78.76923h354.461538c43.323077 0 78.769231 35.446154 78.769231 78.76923zM512-128C228.430769-128 0 100.43076900000005 0 384S228.430769 896 512 896s512-228.430769 512-512-228.430769-512-512-512z m0 555.323077c94.523077 0 169.353846 74.830769 169.353846 169.353846S606.523077 769.969231 512 769.969231s-169.353846-78.769231-169.353846-173.292308 74.830769-169.353846 169.353846-169.353846z"  horiz-adv-x="1024" />

    
    <glyph glyph-name="full-screen" unicode="&#58918;" d="M843.1616 827.733333H989.866667a170.666667 170.666667 0 0 0 170.666666-170.666666v-152.8832a34.133333 34.133333 0 1 1 68.266667 0V657.066667a238.933333 238.933333 0 0 1-238.933333 238.933333h-146.705067a34.133333 34.133333 0 0 1 0-68.266667zM1160.533333 266.64959999999996V110.93333299999995a170.666667 170.666667 0 0 0-170.666666-170.666666h-123.5968a34.133333 34.133333 0 0 1 0-68.266667H989.866667a238.933333 238.933333 0 0 1 238.933333 238.933333v155.716267a34.133333 34.133333 0 1 1-68.266667 0zM393.4208-59.733333000000016H238.933333a170.666667 170.666667 0 0 0-170.666666 170.666666v155.136a34.133333 34.133333 0 0 1-68.266667 0V110.93333299999995a238.933333 238.933333 0 0 1 238.933333-238.933333h154.487467a34.133333 34.133333 0 0 1 0 68.266667zM68.266667 502.954667V657.066667a170.666667 170.666667 0 0 0 170.666666 170.666666h147.933867a34.133333 34.133333 0 0 1 0 68.266667H238.933333a238.933333 238.933333 0 0 1-238.933333-238.933333v-154.112a34.133333 34.133333 0 1 1 68.266667 0z"  horiz-adv-x="1228" />

    
    <glyph glyph-name="thick" unicode="&#58919;" d="M512 834C262.76923057 834 62 633.23076943 62 384s200.76923057-450 450-450 450 200.76923057 450 450S761.23076943 834 512 834z m0-830.76923057C300.84615372 3.2307694300000094 131.23076943 172.84615371999996 131.23076943 384S300.84615372 764.76923057 512 764.76923057s380.76923057-169.61538427 380.76923057-380.76923057-169.61538427-380.76923057-380.76923057-380.76923057zM692 543.23076943l-183.46153887-218.07692314c-13.84615371-13.84615371-38.07692315-17.30769258-51.92307685-6.92307686L325.07692315 418.61538427c-13.84615371 10.38461572-38.07692315 6.92307685-48.46153887-6.92307685-10.38461572-13.84615371-6.92307685-38.07692315 6.92307686-48.46153799l131.53846201-100.38461571c17.30769258-13.84615371 41.53846114-20.76923057 65.76923057-20.76923057 31.15384629 0 62.30769258 13.84615371 83.07692313 38.07692313l183.46153887 218.07692315c13.84615371 13.84615371 10.38461572 38.07692315-3.46153887 48.46153799-17.30769258 13.84615371-38.07692315 13.84615371-51.92307685-3.46153799z"  horiz-adv-x="1024" />

    
    <glyph glyph-name="question" unicode="&#58925;" d="M481.834667 350.16533300000003A42.538667 42.538667 0 0 0 512 362.66666699999996a128 128 0 1 1-128 128 42.666667 42.666667 0 0 0-85.333333 0 213.333333 213.333333 0 1 0 256-209.066667v-46.933333a42.666667 42.666667 0 0 0-85.333334 0v85.333333c0 11.776 4.778667 22.442667 12.501334 30.165333zM512-128C229.248-128 0 101.24800000000005 0 384S229.248 896 512 896s512-229.248 512-512-229.248-512-512-512z m0 85.333333c235.648 0 426.666667 191.018667 426.666667 426.666667S747.648 810.666667 512 810.666667 85.333333 619.648 85.333333 384s191.018667-426.666667 426.666667-426.666667z m0 106.666667a42.666667 42.666667 0 1 0 0 85.333333 42.666667 42.666667 0 0 0 0-85.333333z"  horiz-adv-x="1024" />

    
    <glyph glyph-name="favourate" unicode="&#58927;" d="M142.31918 355.73287300000004l350.13559-373.653781c54.296613-63.852817 139.806023-63.883844 195.033436 1.054906l362.204951 388.670672c42.661625 48.866952 65.466202 112.130263 65.466203 182.902021a279.239726 279.239726 0 0 1-501.018122 169.653647 30.99561 30.99561 0 0 0-25.534922-12.131415 30.99561 30.99561 0 0 0-25.503895 12.131415A279.239726 279.239726 0 0 1 62.053272 554.706691c0-72.850542 28.792718-144.242832 77.411458-195.498835 1.054906-1.116959 1.985705-2.264944 2.85445-3.474983z m-54.606879-31.926409A349.732244 349.732244 0 0 0 0 554.706691C0 743.1935060000001 152.806184 895.99969 341.292999 895.99969c95.065613 0 183.708713-39.155615 247.313317-106.111096A340.486306 340.486306 0 0 0 835.95066 895.99969c188.486815 0 341.292999-152.806184 341.292999-341.292999 0-80.793361-25.069522-154.636755-72.198982-213.463257-1.147986-1.923651-2.482131-3.754223-4.095516-5.491715l-5.181449-5.553768c-2.699317-3.071637-5.491715-6.112247-8.315138-9.090804-0.620533-0.620533-1.210039-1.241065-1.861598-1.799545L733.810974-58.069375000000036c-79.055869-93.048882-209.553901-93.017855-287.616918-1.147985L90.783938 319.959161a31.243823 31.243823 0 0 0-3.102664 3.847303z"  horiz-adv-x="1179" />

    
    <glyph glyph-name="scan" unicode="&#58928;" d="M665.6 768a21.333333 21.333333 0 1 0 0 42.666667h123.648A149.482667 149.482667 0 0 0 938.666667 661.184v-133.504a21.333333 21.333333 0 1 0-42.666667 0v133.504A106.816 106.816 0 0 1 789.248 768h-123.669333zM896 220.03200000000004a21.333333 21.333333 0 1 0 42.666667 0v-113.258667A149.397333 149.397333 0 0 0 789.333333-42.66666699999996H234.666667c-82.389333 0-149.333333 66.986667-149.333334 149.205334v122.752a21.333333 21.333333 0 0 0 42.666667 0v-122.752A106.773333 106.773333 0 0 1 234.666667 0h554.666666c58.88 0 106.666667 47.808 106.666667 106.773333v113.28zM128 532.949333a21.333333 21.333333 0 1 0-42.666667 0v128.213334C85.333333 743.701333 152.170667 810.666667 234.624 810.666667h128.725333a21.333333 21.333333 0 0 0 0-42.666667h-128.725333A106.730667 106.730667 0 0 1 128 661.141333v-128.192zM106.666667 362.66666699999996a21.333333 21.333333 0 0 0 0 42.666666h810.666666a21.333333 21.333333 0 0 0 0-42.666666H106.666667z"  horiz-adv-x="1024" />

    
    <glyph glyph-name="me" unicode="&#58929;" d="M512 332.79999999999995c-127.9744 0-230.4 115.2512-230.4 256s102.4256 256 230.4 256 230.4-115.2512 230.4-256-102.4256-256-230.4-256z m0 51.2c98.2528 0 179.2 91.0592 179.2 204.8s-80.9472 204.8-179.2 204.8-179.2-91.0592-179.2-204.8 80.9472-204.8 179.2-204.8zM128 102.39999999999998a179.2 179.2 0 0 0 179.3792 179.2h409.2416C815.6416 281.6 896 201.2672 896 102.39999999999998a179.2 179.2 0 0 0-179.3792-179.2H307.3792C208.3584-76.79999999999995 128 3.532799999999952 128 102.39999999999998z m51.2 0c0-70.5792 57.4464-128 128.1792-128h409.2416A128 128 0 0 1 844.8 102.39999999999998c0 70.5792-57.4464 128-128.1792 128H307.3792A128 128 0 0 1 179.2 102.39999999999998z"  horiz-adv-x="1024" />

    
    <glyph glyph-name="home" unicode="&#58930;" d="M362.666667 0.08533299999999144V256.14933299999996c0 36.266667 33.109333 63.850667 72.533333 63.850667h153.6c39.253333 0 72.533333-27.648 72.533333-63.850667v-256.064h59.904c61.269333 0 110.762667 47.957333 110.762667 106.730667V481.834667L557.162667 756.672a63.808 63.808 0 0 1-90.325334 0L192 481.834667v-375.018667c0-58.88 49.386667-106.730667 110.762667-106.730667H362.666667z m42.666666 0h213.333334V256.14933299999996c0 10.709333-12.586667 21.184-29.866667 21.184h-153.6c-17.408 0-29.866667-10.389333-29.866667-21.184v-256.064z m469.333334 439.082667v-332.352c0-82.645333-68.885333-149.397333-153.429334-149.397333H302.762667C218.133333-42.58133299999997 149.333333 24.063999999999965 149.333333 106.81600000000003V439.168l-27.584-27.584a21.333333 21.333333 0 1 0-30.165333 30.165333L436.672 786.837333a106.474667 106.474667 0 0 0 150.656 0l345.088-345.088a21.333333 21.333333 0 0 0-30.165333-30.165333L874.666667 439.168z"  horiz-adv-x="1024" />

    
    <glyph glyph-name="chat" unicode="&#58931;" d="M490.752 104.76800000000003A21.333333 21.333333 0 0 0 512 128c13.866667 0 27.669333 0.618667 41.344 1.834667C748.032 147.22133299999996 896 284.90666699999997 896 448c0 175.850667-171.178667 320-384 320S128 623.8506669999999 128 448c0-89.770667 44.693333-173.845333 122.410667-234.176a21.333333 21.333333 0 0 0-26.154667-33.706667C136.512 248.23466699999994 85.333333 344.49066700000003 85.333333 448c0 201.173333 191.765333 362.666667 426.666667 362.666667s426.666667-161.493333 426.666667-362.666667c0-186.816-166.186667-341.44-381.525334-360.661333-8.96-0.789333-17.92-1.365333-26.965333-1.685334-18.986667-73.557333-82.602667-116.778667-161.002667-127.445333-31.616-4.309333-61.952-2.197333-80.554666 5.866667-32.917333 14.250667-30.037333 46.933333 3.178666 64.256 20.352 10.602667 31.893333 25.450667 37.013334 44.224 4.48 16.490667 3.712 34.922667-0.426667 52.565333a95.061333 95.061333 0 0 1-3.114667 10.965333 21.333333 21.333333 0 0 0 39.893334 15.189334c1.28-3.456 3.072-9.088 4.778666-16.448 5.589333-23.957333 6.634667-49.152 0.021334-73.472a108.842667 108.842667 0 0 0-44.096-62.229334c10.752-0.853333 23.893333-0.512 37.546666 1.344 65.877333 8.981333 116.053333 44.714667 127.338667 104.32zM352 469.333333a21.333333 21.333333 0 0 0 0 42.666667h341.333333a21.333333 21.333333 0 0 0 0-42.666667h-341.333333z m0-128a21.333333 21.333333 0 0 0 0 42.666667h213.333333a21.333333 21.333333 0 0 0 0-42.666667h-213.333333z"  horiz-adv-x="1024" />

    
    <glyph glyph-name="topay" unicode="&#58943;" d="M146.645333 299.989333a21.717333 21.717333 0 0 0-8.789333 7.061334L68.224 402.133333a21.824 21.824 0 1 0 35.2 25.792l27.690667-37.802666C139.2 611.9680000000001 321.6 789.333333 545.408 789.333333 774.4 789.333333 960 603.733333 960 374.76266699999996s-185.6-414.592-414.570667-414.592c-147.882667 0-282.24 78.08-356.48 202.837333a21.824 21.824 0 1 0 37.482667 22.314667 370.688 370.688 0 0 1 318.997333-181.504c204.864 0 370.922667 166.08 370.922667 370.944 0 204.864-166.058667 370.922667-370.922667 370.922666-204.864 0-370.944-166.058667-370.944-370.922666 0-17.621333 1.216-35.072 3.626667-52.266667a21.824 21.824 0 0 0-31.466667-22.506667z m420.586667 74.773334v-65.472h152.746667a21.824 21.824 0 0 0 0-43.626667h-152.746667v-130.922667a21.824 21.824 0 1 0-43.626667 0v130.922667h-152.746666a21.824 21.824 0 0 0 0 43.626667h152.746666v65.472h-152.746666a21.824 21.824 0 0 0 0 43.626666h140.202666l-151.936 124.992a21.824 21.824 0 1 0 27.712 33.706667l159.637334-131.306667L706.133333 577.066667a21.824 21.824 0 1 0 27.733334-33.706667l-151.957334-124.970667h138.090667a21.824 21.824 0 0 0 0-43.626666h-152.746667z"  horiz-adv-x="1024" />

    
    </font>
</defs>
</svg>
